<?xml version="1.0" standalone="no"?>
<!DOCTYPE svg PUBLIC "-//W3C//DTD SVG 20010904//EN"
 "http://www.w3.org/TR/2001/REC-SVG-20010904/DTD/svg10.dtd">
<svg version="1.0" xmlns="http://www.w3.org/2000/svg"
 width="974.000000pt" height="976.000000pt" viewBox="0 0 974.000000 976.000000"
 preserveAspectRatio="xMidYMid meet">

<g transform="translate(0.000000,976.000000) scale(0.100000,-0.100000)"
fill="#000000" stroke="none">
<path d="M4615 9754 c-259 -19 -497 -49 -679 -85 -1358 -270 -2521 -1086
-3236 -2270 -80 -132 -255 -468 -248 -475 3 -2 33 54 67 124 80 160 209 381
319 542 77 113 111 159 247 337 22 28 43 52 48 52 14 2 7 -16 -18 -43 -14 -15
-25 -33 -25 -40 0 -7 -12 -18 -26 -25 -15 -6 -24 -17 -21 -24 3 -8 -11 -32
-32 -54 -58 -64 -71 -82 -71 -97 0 -7 -9 -21 -20 -31 -11 -10 -20 -24 -20 -31
0 -7 -10 -16 -22 -20 l-23 -7 24 -8 c30 -12 21 -35 -13 -32 -26 2 -31 -7 -28
-49 1 -10 -4 -18 -11 -18 -6 0 -20 -12 -31 -26 -15 -22 -16 -28 -5 -35 10 -6
8 -9 -9 -9 -19 0 -21 -2 -10 -13 7 -7 22 -16 32 -20 31 -12 9 -20 -23 -9 -17
6 -31 7 -31 2 0 -11 29 -40 41 -40 5 0 9 -4 9 -10 0 -6 -9 -6 -25 0 -13 5 -27
5 -30 1 -3 -5 2 -11 10 -15 26 -10 16 -25 -25 -36 -39 -11 -63 -30 -37 -30 8
0 20 -7 27 -15 11 -13 7 -15 -26 -16 -22 -1 -31 -3 -22 -6 28 -7 21 -23 -9
-23 l-26 0 21 -23 c30 -32 28 -41 -8 -34 -23 5 -28 3 -23 -8 3 -8 14 -15 24
-15 10 0 19 -4 19 -10 0 -5 -11 -10 -24 -10 -14 0 -28 -4 -31 -10 -3 -5 3 -10
14 -10 12 0 21 -4 21 -10 0 -5 -7 -10 -15 -10 -8 0 -15 -4 -15 -10 0 -5 -6
-10 -13 -10 -7 0 -18 -9 -25 -20 -7 -12 -8 -20 -2 -20 5 0 10 -4 10 -10 0 -5
-5 -10 -11 -10 -17 0 -40 -28 -29 -35 20 -13 10 -43 -19 -56 -32 -14 -32 -29
0 -29 10 0 19 -4 19 -10 0 -5 -11 -10 -25 -10 -14 0 -25 -4 -25 -10 0 -5 5
-10 10 -10 6 0 10 -16 10 -35 0 -36 -8 -43 -26 -25 -8 8 -15 6 -24 -5 -7 -8
-8 -15 -2 -15 5 0 12 -7 16 -15 3 -8 2 -14 -2 -13 -14 3 -42 -14 -42 -26 0 -7
-8 -21 -18 -32 -24 -26 -33 -52 -19 -57 7 -2 1 -14 -14 -31 -14 -15 -32 -49
-39 -77 -8 -27 -18 -49 -23 -49 -6 0 -7 -3 -4 -7 4 -3 -9 -35 -29 -70 -20 -35
-33 -70 -31 -78 3 -7 -3 -29 -14 -49 -10 -20 -19 -43 -19 -51 0 -9 -6 -26 -14
-38 -32 -48 -68 -170 -63 -209 4 -28 1 -41 -8 -44 -8 -3 -19 -29 -25 -57 -18
-87 -60 -334 -61 -364 0 -15 -3 -22 -6 -14 -7 18 13 163 48 346 16 83 29 154
29 159 0 67 -64 -263 -89 -454 -30 -223 -35 -327 -35 -630 0 -303 5 -407 35
-630 17 -131 53 -333 79 -445 35 -151 46 -192 76 -295 269 -901 773 -1694
1457 -2293 789 -691 1721 -1092 2787 -1199 165 -17 687 -17 860 0 1166 114
2195 596 3011 1411 188 188 300 316 445 511 513 684 825 1448 944 2310 48 350
48 898 0 1260 -98 732 -355 1425 -758 2045 -303 465 -700 890 -1147 1225 -719
539 -1526 855 -2445 956 -127 14 -626 26 -735 18z m78 -31 c-18 -2 -48 -2 -65
0 -18 2 -4 4 32 4 36 0 50 -2 33 -4z m412 -11 c-3 -3 -11 0 -18 7 -9 10 -8 11
6 5 10 -3 15 -9 12 -12z m-594 1 c-37 -4 -42 -7 -38 -24 6 -24 -1 -24 -33 -2
l-25 18 30 6 c17 4 48 6 70 6 l40 0 -44 -4z m-131 -16 c-26 -14 -50 -12 -50 4
0 5 17 9 38 9 37 0 37 0 12 -13z m-175 -24 c-21 -7 -45 -19 -53 -25 -12 -10
-16 -10 -19 0 -6 15 -33 16 -33 2 0 -6 7 -13 15 -16 8 -4 15 -13 15 -22 0 -12
-8 -8 -29 13 -26 24 -35 27 -68 21 -21 -4 -62 -10 -92 -12 -30 -2 -59 -8 -65
-13 -6 -5 -40 -11 -76 -14 -93 -9 -40 6 150 42 196 37 273 48 284 42 5 -2 -8
-10 -29 -18z m90 17 c-3 -5 -12 -7 -20 -3 -21 7 -19 13 6 13 11 0 18 -4 14
-10z m205 -70 c0 -5 -2 -10 -4 -10 -3 0 -8 5 -11 10 -3 6 -1 10 4 10 6 0 11
-4 11 -10z m1417 -6 c-3 -3 -12 -4 -19 -1 -8 3 -5 6 6 6 11 1 17 -2 13 -5z
m-2176 -30 c10 -13 10 -17 0 -24 -8 -4 -10 -13 -6 -19 5 -9 10 -9 21 0 11 9
14 8 14 -5 0 -9 1 -16 3 -16 81 -13 96 -8 62 20 -17 14 -20 40 -5 40 6 0 15
-11 21 -24 10 -21 17 -23 57 -21 53 4 72 -2 72 -21 0 -18 -14 -18 -30 0 -6 8
-18 12 -25 10 -19 -8 -7 -34 16 -34 10 0 19 -4 19 -10 0 -14 -15 -13 -57 5
-43 18 -62 20 -45 3 7 -7 8 -17 2 -28 -13 -25 26 -45 62 -31 14 5 29 7 32 4 3
-4 6 1 6 9 0 18 28 44 37 34 3 -3 -2 -15 -12 -26 -23 -26 -9 -25 34 1 26 16
36 18 42 8 6 -10 25 -10 91 -1 217 31 510 41 721 26 83 -6 110 -15 87 -29 -5
-3 -70 -9 -142 -12 -89 -3 -145 -10 -168 -21 -46 -20 -45 -19 -31 -36 7 -8 11
-23 9 -33 -4 -14 -9 -9 -23 20 -10 20 -23 37 -28 37 -18 0 -47 -21 -47 -35 0
-8 -7 -15 -15 -15 -8 0 -15 4 -15 10 0 5 -10 14 -22 21 l-21 11 22 -30 22 -31
-21 -11 c-23 -12 -40 -6 -40 16 0 8 -6 14 -13 14 -13 0 -16 -44 -4 -57 13 -12
7 -32 -8 -27 -8 4 -15 13 -15 21 0 10 -7 14 -19 10 -20 -5 -36 17 -25 34 3 5
1 9 -4 9 -5 0 -12 -8 -14 -18 -6 -22 15 -55 28 -44 4 4 2 -1 -5 -11 -12 -15
-16 -15 -30 -4 -17 14 -51 12 -51 -4 0 -5 8 -9 18 -9 32 0 32 -11 -2 -46 -25
-26 -41 -34 -69 -34 -20 0 -39 -4 -42 -10 -3 -6 5 -10 19 -10 69 0 77 -35 10
-45 -26 -3 -56 -10 -68 -15 -58 -23 -74 -28 -118 -34 -14 -3 -35 -9 -46 -15
-12 -6 -36 -11 -56 -11 -19 0 -38 -5 -41 -11 -4 -5 -19 -8 -33 -6 -15 2 -21 2
-14 0 24 -9 0 -23 -39 -23 -21 0 -39 -5 -39 -10 0 -7 -13 -8 -35 -4 -30 5 -34
4 -29 -10 3 -9 14 -16 23 -17 10 0 11 -2 4 -6 -7 -2 -27 3 -44 11 -42 21 -42
21 -34 -11 4 -16 3 -25 -1 -21 -4 4 -14 3 -21 -4 -11 -9 -16 -9 -22 0 -7 12
-72 2 -94 -16 -7 -5 -24 -12 -39 -16 -16 -4 -25 -11 -23 -19 3 -8 -24 -23 -77
-42 -46 -16 -86 -31 -90 -33 -5 -2 -8 3 -8 11 0 12 -5 12 -35 -2 -19 -9 -33
-21 -30 -27 2 -7 -24 -24 -58 -39 -324 -143 -649 -345 -977 -609 -69 -56 -130
-100 -135 -99 -6 2 -15 -7 -20 -20 -6 -12 -23 -28 -40 -36 -16 -8 -32 -17 -35
-21 -3 -4 -19 -15 -37 -24 -18 -9 -37 -25 -43 -36 -6 -11 -16 -20 -23 -20 -7
0 -28 -16 -47 -35 -37 -38 -50 -43 -50 -20 0 8 -4 15 -10 15 -5 0 -10 -8 -10
-18 0 -10 -12 -28 -26 -41 -17 -15 -23 -28 -19 -39 13 -33 10 -37 -32 -40 -24
-2 -43 1 -43 6 0 5 -11 12 -25 14 -20 4 -25 1 -25 -15 0 -17 -5 -19 -33 -14
-25 4 -39 -1 -60 -19 -15 -12 -27 -29 -27 -36 0 -7 -20 -26 -45 -41 -25 -16
-45 -32 -45 -37 0 -4 -11 -18 -25 -31 -13 -13 -25 -30 -25 -36 0 -7 -5 -13
-10 -13 -18 0 -109 -111 -130 -159 -6 -14 -22 -36 -35 -49 -14 -14 -25 -30
-25 -37 0 -7 -7 -18 -15 -25 -8 -7 -15 -18 -15 -25 0 -7 -12 -26 -28 -42 -15
-17 -36 -48 -47 -69 -11 -21 -30 -53 -42 -70 -13 -17 -23 -36 -23 -43 0 -6 -5
-17 -10 -24 -27 -32 -90 -134 -90 -145 0 -7 -9 -23 -20 -34 -12 -13 -16 -26
-11 -31 5 -5 -4 -22 -20 -40 -16 -17 -29 -41 -29 -54 0 -12 -6 -26 -12 -30 -7
-4 -26 -36 -42 -70 -26 -54 -27 -64 -15 -79 12 -15 12 -16 -6 -11 -18 6 -25
-6 -62 -101 -41 -102 -98 -272 -122 -357 -31 -113 -73 -272 -77 -290 -24 -107
-53 -282 -49 -292 5 -14 -4 -17 -22 -5 -8 5 -9 22 -3 57 27 155 43 264 45 295
3 52 15 122 25 145 4 11 24 83 44 160 57 220 148 500 167 515 4 3 13 31 20 63
8 31 17 57 21 57 5 0 8 9 8 20 0 11 5 20 10 20 6 0 10 7 10 17 0 16 15 50 91
208 22 43 39 85 39 91 0 7 4 14 8 16 7 3 148 236 206 341 14 26 35 60 45 75
10 15 49 74 87 132 88 135 157 230 261 357 72 89 82 106 77 131 -4 19 1 42 12
63 10 19 17 37 16 42 -1 4 2 7 6 7 5 0 36 38 68 85 32 47 71 102 86 123 24 34
21 59 -5 33 -6 -6 -23 -11 -38 -11 -16 0 -40 -13 -63 -35 -21 -19 -42 -35 -47
-35 -5 0 -9 -7 -9 -15 0 -8 -14 -22 -31 -31 -23 -11 -28 -19 -20 -27 16 -16
14 -30 -3 -24 -23 9 -66 -16 -61 -34 4 -12 -2 -19 -21 -23 -15 -4 -39 -20 -53
-35 -14 -15 -37 -34 -51 -41 -28 -14 103 127 249 268 553 536 1333 973 2085
1167 110 29 110 29 127 9z m777 -9 c-3 -3 -9 2 -12 12 -6 14 -5 15 5 6 7 -7
10 -15 7 -18z m1499 19 c-3 -3 -12 -4 -19 -1 -8 3 -5 6 6 6 11 1 17 -2 13 -5z
m-2047 -14 c0 -5 -2 -10 -4 -10 -2 0 -12 -3 -20 -6 -12 -5 -15 -2 -10 10 7 17
34 22 34 6z m190 0 c0 -5 -4 -10 -10 -10 -5 0 -10 5 -10 10 0 6 5 10 10 10 6
0 10 -4 10 -10z m2132 -59 c641 -194 1221 -514 1753 -969 145 -124 404 -387
525 -533 140 -168 313 -409 293 -409 -5 0 -16 13 -25 28 -10 16 -33 46 -52 67
-20 21 -38 47 -42 57 -7 25 -24 23 -24 -3 0 -16 -5 -20 -20 -16 -26 7 -26 -11
0 -33 13 -11 17 -21 10 -25 -5 -3 -10 -1 -10 4 0 6 -9 11 -20 11 -24 0 -26
-13 -5 -30 8 -7 15 -25 15 -41 0 -19 5 -29 15 -29 8 0 15 -4 15 -9 0 -5 7 -17
16 -25 14 -15 14 -16 -6 -16 -13 0 -24 9 -30 25 -5 14 -16 25 -25 25 -9 0 -15
9 -15 23 0 12 -7 31 -15 41 -11 15 -17 17 -29 7 -14 -11 -80 -10 -92 1 -11 11
36 29 58 22 14 -4 18 -2 14 5 -4 6 -25 14 -46 17 -43 7 -56 25 -40 55 9 15 7
20 -7 25 -47 15 -63 25 -63 39 0 27 -27 47 -52 39 -19 -6 -21 -4 -11 7 15 19
63 23 63 6 0 -18 24 -67 33 -67 4 0 7 4 7 9 0 5 10 12 23 14 16 3 14 5 -10 6
-38 1 -50 16 -26 30 17 9 17 11 -2 25 -11 9 -28 14 -37 12 -10 -2 -17 -1 -16
3 1 3 -4 17 -11 29 -7 14 -10 35 -6 49 5 20 3 24 -10 20 -12 -5 -14 -1 -9 20
6 23 4 25 -15 20 -17 -4 -21 -1 -21 19 0 17 -12 30 -47 51 -25 15 -41 29 -35
31 20 6 13 22 -8 22 -11 0 -23 7 -26 15 -4 10 -13 13 -25 10 -12 -4 -20 -1
-20 7 -1 7 -3 20 -4 28 -1 8 -3 21 -4 29 0 8 -4 11 -7 8 -10 -10 -58 22 -79
53 -10 15 -25 26 -32 23 -9 -3 -11 0 -8 10 4 9 -2 16 -16 20 -14 4 -20 11 -16
20 7 18 -33 37 -64 31 -21 -5 -22 -4 -6 6 21 13 23 40 2 40 -8 0 -15 8 -15 18
0 27 -20 42 -55 42 -29 0 -32 3 -32 31 0 17 -6 35 -14 40 -12 7 -12 9 1 10 8
0 1 7 -17 15 -22 9 -31 19 -27 29 4 10 0 15 -10 15 -9 0 -22 11 -28 25 -6 14
-17 25 -25 25 -16 0 -16 -5 -1 -33 14 -26 19 -77 8 -77 -5 0 -15 -3 -24 -6
-11 -4 -16 -1 -16 10 0 9 5 15 11 14 23 -6 19 19 -6 32 -27 15 -34 50 -10 50
14 0 14 3 0 24 -11 16 -22 22 -35 19 -24 -6 -26 4 -4 28 15 16 14 17 -5 12
-12 -3 -24 -9 -26 -14 -8 -13 -83 41 -89 65 -6 24 -68 58 -90 50 -8 -3 -16 3
-19 15 -3 14 -13 21 -30 21 -14 0 -27 7 -31 15 -3 8 -12 15 -19 15 -8 0 -22
10 -31 23 -12 15 -18 18 -22 10 -3 -7 -11 -13 -16 -13 -6 0 -8 3 -5 7 4 3 0
15 -10 25 -16 17 -17 17 -49 -7 -36 -27 -44 -30 -44 -15 0 6 8 14 18 17 25 10
46 33 37 41 -4 4 -10 1 -12 -5 -8 -22 -41 -15 -45 8 -2 12 -13 26 -25 30 -19
7 -25 3 -37 -19 -14 -25 -15 -25 -16 -5 0 12 -5 25 -11 28 -6 4 -8 13 -6 19 4
9 -6 13 -27 14 -41 2 -86 18 -86 31 0 6 -6 8 -14 5 -17 -6 -76 22 -76 36 0 18
-25 10 -53 -16 -24 -22 -30 -24 -45 -13 -9 7 -19 14 -21 16 -5 3 26 33 34 33
3 0 3 -9 0 -20 -6 -18 -4 -19 18 -9 13 6 32 24 41 41 18 30 18 30 -2 19 -17
-9 -23 -8 -29 4 -11 19 -77 9 -69 -10 4 -12 -12 -35 -25 -35 -12 0 2 37 22 59
13 14 15 22 7 27 -7 4 -14 2 -16 -4 -8 -25 -29 -11 -38 26 -9 35 -11 37 -47
35 -24 -2 -36 1 -34 9 1 7 -12 17 -29 23 -16 5 -42 18 -57 27 -14 10 -32 15
-40 12 -8 -3 -21 4 -29 15 -8 11 -27 23 -43 27 -16 4 -40 13 -54 20 -31 16
-51 18 -51 4 0 -5 -4 -10 -10 -10 -5 0 -10 6 -10 14 0 9 -30 24 -80 41 -44 15
-80 29 -80 31 0 7 3 6 172 -45z m-2272 -11 c0 -5 -4 -10 -10 -10 -5 0 -10 5
-10 10 0 6 5 10 10 10 6 0 10 -4 10 -10z m1040 -49 c0 -6 -4 -13 -10 -16 -5
-3 -10 1 -10 9 0 9 5 16 10 16 6 0 10 -4 10 -9z m-300 -51 c0 -5 -4 -10 -10
-10 -5 0 -10 5 -10 10 0 6 5 10 10 10 6 0 10 -4 10 -10z m755 -50 c3 -5 1 -10
-4 -10 -6 0 -11 5 -11 10 0 6 2 10 4 10 3 0 8 -4 11 -10z m-965 -26 c0 -8 -5
-12 -10 -9 -6 4 -8 11 -5 16 9 14 15 11 15 -7z m100 -25 c0 -5 -4 -9 -10 -9
-5 0 -10 7 -10 16 0 8 5 12 10 9 6 -3 10 -10 10 -16z m-94 -23 c10 -8 16 -17
12 -21 -7 -7 -48 16 -48 27 0 12 14 9 36 -6z m-156 -26 c0 -5 -4 -10 -10 -10
-5 0 -10 5 -10 10 0 6 5 10 10 10 6 0 10 -4 10 -10z m269 1 c7 -5 12 -14 9
-21 -2 -7 -10 -4 -22 9 -19 21 -12 28 13 12z m-221 -20 c3 -8 -1 -12 -9 -9 -7
2 -15 10 -17 17 -3 8 1 12 9 9 7 -2 15 -10 17 -17z m-88 -21 c0 -5 -4 -10 -10
-10 -5 0 -10 5 -10 10 0 6 5 10 10 10 6 0 10 -4 10 -10z m741 -23 c-10 -9 -11
-8 -5 6 3 10 9 15 12 12 3 -3 0 -11 -7 -18z m-771 -2 c0 -8 -7 -15 -15 -15 -8
0 -15 7 -15 15 0 8 7 15 15 15 8 0 15 -7 15 -15z m379 -29 c1 -6 -5 -1 -13 9
-8 11 -12 24 -8 29 5 9 20 -17 21 -38z m1731 14 c0 -5 -2 -10 -4 -10 -3 0 -8
5 -11 10 -3 6 -1 10 4 10 6 0 11 -4 11 -10z m400 -10 c0 -5 -5 -10 -11 -10 -5
0 -7 5 -4 10 3 6 8 10 11 10 2 0 4 -4 4 -10z m100 -40 c0 -5 -4 -10 -10 -10
-5 0 -10 5 -10 10 0 6 5 10 10 10 6 0 10 -4 10 -10z m-40 -20 c0 -5 -2 -10 -4
-10 -3 0 -8 5 -11 10 -3 6 -1 10 4 10 6 0 11 -4 11 -10z m140 -10 c0 -23 -1
-24 -51 -8 -52 15 -49 28 6 28 38 0 45 -3 45 -20z m-1690 -54 c979 -121 1840
-545 2515 -1237 616 -631 1003 -1400 1144 -2269 43 -265 55 -451 47 -750 -8
-335 -27 -509 -91 -805 -146 -678 -459 -1307 -919 -1844 -160 -187 -442 -455
-611 -580 -33 -25 -65 -50 -70 -55 -6 -6 -18 -15 -26 -21 -9 -5 -65 -44 -125
-85 -472 -322 -1017 -546 -1586 -650 -590 -108 -1235 -87 -1803 60 -924 238
-1749 789 -2313 1543 -477 637 -760 1377 -828 2157 -17 206 -16 571 3 775 44
473 186 981 398 1420 542 1123 1567 1953 2770 2245 239 58 377 80 710 114 106
10 657 -2 785 -18z m1030 -30 c0 -3 -4 -8 -10 -11 -5 -3 -10 -1 -10 4 0 6 5
11 10 11 6 0 10 -2 10 -4z m925 -56 c3 -5 -1 -10 -10 -10 -9 0 -13 5 -10 10 3
6 8 10 10 10 2 0 7 -4 10 -10z m-40 -50 c-3 -5 -10 -10 -16 -10 -5 0 -9 5 -9
10 0 6 7 10 16 10 8 0 12 -4 9 -10z m255 -60 c0 -5 -7 -10 -15 -10 -8 0 -15 5
-15 10 0 6 7 10 15 10 8 0 15 -4 15 -10z m230 -280 c0 -5 -4 -10 -10 -10 -5 0
-10 5 -10 10 0 6 5 10 10 10 6 0 10 -4 10 -10z m130 -60 c0 -5 -2 -10 -4 -10
-3 0 -8 5 -11 10 -3 6 -1 10 4 10 6 0 11 -4 11 -10z m-6440 -280 c0 -5 -4 -10
-10 -10 -5 0 -10 5 -10 10 0 6 5 10 10 10 6 0 10 -4 10 -10z m-46 -36 c23 -9
20 -17 -15 -38 -37 -22 -43 -18 -26 17 13 29 16 30 41 21z m-134 -105 c0 -6
-9 -13 -20 -16 -11 -3 -20 -10 -20 -17 0 -12 -39 -40 -47 -33 -2 3 11 21 29
41 32 35 58 47 58 25z m60 -39 c0 -6 -11 -10 -24 -10 -13 0 -33 -3 -43 -6 -17
-6 -17 -6 0 8 22 16 67 22 67 8z m-108 -50 c-12 -12 -22 -30 -22 -40 0 -11 -4
-20 -10 -20 -5 0 -10 7 -10 15 0 7 -7 18 -16 23 -20 11 -8 36 13 28 8 -3 24 1
36 9 29 20 35 9 9 -15z m493 -250 c-3 -5 -10 -10 -16 -10 -5 0 -9 5 -9 10 0 6
7 10 16 10 8 0 12 -4 9 -10z m6775 0 c0 -5 -2 -10 -4 -10 -3 0 -8 5 -11 10 -3
6 -1 10 4 10 6 0 11 -4 11 -10z m157 -126 c-9 -9 -28 6 -21 18 4 6 10 6 17 -1
6 -6 8 -13 4 -17z m-7752 -94 c4 -6 -5 -10 -19 -10 -14 0 -26 5 -26 10 0 6 9
10 19 10 11 0 23 -4 26 -10z m7836 -12 l44 -22 -35 -6 c-23 -4 -39 -2 -46 7
-6 7 -19 11 -28 7 -21 -8 -21 5 2 22 9 7 17 14 18 14 0 0 20 -10 45 -22z
m-7859 -53 c-2 -14 -8 -25 -13 -25 -12 0 -11 7 1 31 14 26 18 24 12 -6z m7958
-15 c0 -5 -7 -10 -16 -10 -8 0 -12 5 -9 10 3 6 10 10 16 10 5 0 9 -4 9 -10z
m-8410 -920 c0 -5 -7 -10 -16 -10 -8 0 -12 5 -9 10 3 6 10 10 16 10 5 0 9 -4
9 -10z m-375 -1270 c-13 -138 -14 -143 -9 -45 5 121 16 226 21 210 1 -6 -4
-80 -12 -165z m305 99 c0 -5 -4 -9 -10 -9 -5 0 -10 7 -10 16 0 8 5 12 10 9 6
-3 10 -10 10 -16z m8265 -2859 c-3 -5 -12 -10 -18 -10 -7 0 -6 4 3 10 19 12
23 12 15 0z m-7518 -246 c-3 -3 -12 -4 -19 -1 -8 3 -5 6 6 6 11 1 17 -2 13 -5z
m6793 -692 c0 -5 -12 -14 -27 -21 l-28 -11 24 20 c26 22 31 24 31 12z m-120
-77 c-7 -8 -20 -15 -29 -15 -11 1 -8 5 9 15 32 18 35 18 20 0z m-1760 -819 c0
-2 -7 -7 -16 -10 -8 -3 -12 -2 -9 4 6 10 25 14 25 6z m-1733 -42 c-3 -3 -12
-4 -19 -1 -8 3 -5 6 6 6 11 1 17 -2 13 -5z m1633 -37 c0 -2 -15 -14 -32 -27
l-33 -23 24 26 c21 23 41 35 41 24z m-100 -81 c0 -2 -8 -10 -17 -17 -16 -13
-17 -12 -4 4 13 16 21 21 21 13z m-840 -51 c0 -2 -13 -11 -30 -20 -38 -19 -40
-11 -2 9 31 17 32 18 32 11z m470 -54 c0 -5 -7 -12 -16 -15 -14 -5 -15 -4 -4
9 14 17 20 19 20 6z m-630 -12 c-25 -17 -76 -42 -68 -34 13 14 62 44 73 44 6
0 3 -4 -5 -10z m30 -14 c-7 -9 -15 -13 -19 -10 -3 3 1 10 9 15 21 14 24 12 10
-5z"/>
<path d="M3797 9484 c-10 -11 3 -24 24 -24 23 0 25 15 3 24 -19 7 -19 7 -27 0z"/>
<path d="M4218 9313 c7 -3 16 -2 19 1 4 3 -2 6 -13 5 -11 0 -14 -3 -6 -6z"/>
<path d="M4215 9221 c-6 -11 9 -23 19 -14 9 9 7 23 -3 23 -6 0 -12 -4 -16 -9z"/>
<path d="M1697 8504 c-10 -11 3 -24 23 -24 10 0 20 7 24 15 4 11 -1 15 -18 15
-12 0 -26 -3 -29 -6z"/>
<path d="M1660 7810 c-9 -16 -8 -18 5 -14 8 4 15 12 15 20 0 20 -7 17 -20 -6z"/>
<path d="M1565 7750 c-3 -5 3 -10 14 -10 12 0 21 -4 21 -10 0 -5 9 -10 20 -10
12 0 20 7 20 16 0 11 -6 15 -20 11 -11 -3 -23 -1 -26 4 -7 12 -21 11 -29 -1z"/>
<path d="M8516 7891 c-3 -5 4 -11 16 -14 29 -8 32 -4 8 11 -10 6 -21 8 -24 3z"/>
<path d="M8620 7880 c0 -5 5 -10 10 -10 6 0 10 5 10 10 0 6 -4 10 -10 10 -5 0
-10 -4 -10 -10z"/>
<path d="M8540 7836 c0 -2 8 -10 18 -17 15 -13 16 -12 3 4 -13 16 -21 21 -21
13z"/>
<path d="M8580 7830 c0 -6 6 -10 13 -7 6 2 27 -2 46 -10 28 -11 37 -11 48 -1
10 11 7 13 -15 13 -15 1 -42 4 -59 9 -23 5 -33 4 -33 -4z"/>
<path d="M8566 7774 c-18 -18 -20 -24 -6 -24 5 0 14 9 20 20 13 24 7 26 -14 4z"/>
<path d="M8614 7759 c-19 -22 -19 -22 4 -8 12 8 22 17 22 21 0 12 -6 9 -26
-13z"/>
<path d="M4943 8853 c9 -2 25 -2 35 0 9 3 1 5 -18 5 -19 0 -27 -2 -17 -5z"/>
<path d="M5053 8853 c9 -2 25 -2 35 0 9 3 1 5 -18 5 -19 0 -27 -2 -17 -5z"/>
<path d="M5138 8843 c12 -2 30 -2 40 0 9 3 -1 5 -23 4 -22 0 -30 -2 -17 -4z"/>
<path d="M5263 8833 c9 -2 23 -2 30 0 6 3 -1 5 -18 5 -16 0 -22 -2 -12 -5z"/>
<path d="M5363 8823 c9 -2 23 -2 30 0 6 3 -1 5 -18 5 -16 0 -22 -2 -12 -5z"/>
<path d="M4250 8810 c-20 -6 -21 -8 -5 -8 11 0 29 3 40 8 25 11 -1 11 -35 0z"/>
<path d="M4543 8812 c-13 -2 -24 -12 -26 -25 l-4 -22 -8 23 c-4 12 -9 22 -10
22 -29 0 -329 -43 -352 -51 -34 -11 -50 -36 -33 -53 5 -5 10 -17 10 -25 -1
-13 -4 -12 -16 4 -12 17 -16 18 -24 5 -5 -8 -12 -11 -16 -8 -3 4 3 20 15 37
l22 30 -38 -5 c-43 -6 -47 -7 -163 -39 -98 -27 -238 -79 -254 -95 -7 -7 -3
-10 12 -10 24 0 30 -15 10 -23 -9 -3 -8 -10 6 -26 15 -16 22 -19 30 -10 8 8 7
13 -1 16 -16 6 -17 23 -2 23 12 0 31 -20 49 -52 9 -15 6 -16 -25 -11 l-35 6
45 -82 c48 -87 95 -161 102 -161 2 0 -1 9 -7 19 -16 30 -12 43 10 36 19 -6 19
-5 -3 29 -12 19 -28 35 -34 36 -12 0 -20 30 -9 30 3 0 28 -24 56 -52 45 -47
62 -43 22 5 -8 9 -12 20 -8 24 4 4 18 -6 32 -22 17 -20 27 -26 30 -17 3 6 17
12 31 12 21 0 23 3 17 23 -4 12 -10 24 -14 27 -12 8 -32 51 -27 57 8 8 44 -52
203 -334 53 -95 98 -173 100 -173 2 0 14 24 28 53 145 312 266 557 276 557 5
0 -4 -26 -19 -57 -41 -84 -48 -108 -27 -100 14 5 16 3 11 -12 -4 -15 -1 -20
15 -23 11 -2 21 -6 20 -10 0 -5 0 -19 0 -32 0 -15 -7 -26 -17 -28 -15 -3 -15
-4 0 -19 23 -24 2 -69 -33 -69 -18 0 -21 3 -11 9 16 10 8 27 -22 43 -20 10
-21 10 -8 -5 12 -16 9 -21 -11 -18 -12 2 -9 -14 4 -27 9 -9 9 -12 -3 -12 -8 0
-20 5 -26 11 -6 6 -16 9 -21 5 -5 -3 -39 -66 -75 -140 -36 -74 -69 -136 -74
-139 -8 -5 -23 14 -66 85 -12 19 -22 25 -37 21 -14 -4 -20 0 -20 11 0 9 -7 16
-15 16 -8 0 -15 -5 -15 -11 0 -7 -10 -9 -26 -5 -23 6 -25 4 -19 -14 6 -19 5
-20 -14 -8 -18 11 -23 11 -31 -2 -8 -13 -13 -13 -30 -2 l-21 13 21 -41 c11
-22 24 -39 28 -39 19 3 26 -2 13 -10 -14 -9 -9 -19 86 -178 24 -40 43 -74 43
-76 0 -7 101 -181 111 -191 5 -6 16 9 28 35 10 24 54 116 96 204 42 88 91 189
107 225 17 36 43 94 60 129 16 34 27 69 24 77 -3 8 0 14 7 14 16 0 59 89 50
103 -7 11 -42 -31 -43 -50 0 -7 -4 -13 -9 -13 -5 0 -11 -10 -14 -22 -4 -12 -9
-20 -12 -17 -3 3 1 21 9 40 12 29 12 35 -1 44 -14 10 -14 15 3 40 10 15 19 34
20 42 3 21 24 43 41 43 11 0 11 4 2 21 -9 18 -7 25 16 49 30 31 30 63 0 68
-17 3 -17 1 -5 -7 13 -9 12 -11 -5 -11 -24 0 -47 -33 -39 -55 4 -10 0 -15 -10
-15 -9 0 -16 -4 -16 -10 0 -5 5 -10 10 -10 6 0 10 -7 10 -15 0 -11 -9 -15 -30
-13 -36 3 -37 7 -6 52 13 20 27 52 31 72 8 48 52 131 71 138 9 3 24 6 34 6 9
0 23 7 30 15 10 13 9 15 -11 15 l-24 1 21 17 c12 10 27 28 33 41 8 15 19 21
31 18 10 -2 24 -1 31 4 9 5 -27 9 -88 9 -72 0 -103 -4 -106 -12 -3 -9 -8 -10
-18 -3 -8 6 -24 9 -36 7z m155 -19 c-10 -2 -18 -9 -18 -15 0 -6 -3 -9 -6 -5
-10 10 6 27 24 26 15 -1 15 -2 0 -6z m-58 -23 c0 -5 -4 -10 -10 -10 -5 0 -10
5 -10 10 0 6 5 10 10 10 6 0 10 -4 10 -10z m-50 -10 c0 -5 -5 -10 -11 -10 -5
0 -7 5 -4 10 3 6 8 10 11 10 2 0 4 -4 4 -10z m-180 -10 c0 -5 -7 -10 -16 -10
-8 0 -12 5 -9 10 3 6 10 10 16 10 5 0 9 -4 9 -10z m110 -25 c0 -9 -6 -12 -15
-9 -8 4 -15 10 -15 15 0 5 7 9 15 9 8 0 15 -7 15 -15z m-486 -21 c6 -17 -9
-44 -25 -44 -17 0 -9 20 9 20 16 1 16 1 0 14 -22 16 -23 26 -4 26 8 0 17 -7
20 -16z m349 -21 c-3 -18 -9 -33 -14 -33 -12 0 -11 14 3 45 14 32 17 29 11
-12z m-403 7 c0 -5 -2 -10 -4 -10 -3 0 -8 5 -11 10 -3 6 -1 10 4 10 6 0 11 -4
11 -10z m480 6 c0 -3 -4 -8 -10 -11 -5 -3 -10 -1 -10 4 0 6 5 11 10 11 6 0 10
-2 10 -4z m60 -6 c0 -5 -7 -10 -16 -10 -8 0 -12 5 -9 10 3 6 10 10 16 10 5 0
9 -4 9 -10z m-602 -30 c7 -12 8 -20 2 -20 -5 0 -10 4 -10 8 0 5 -12 13 -27 19
l-28 11 25 1 c15 1 30 -7 38 -19z m502 10 c0 -5 -4 -10 -10 -10 -5 0 -10 5
-10 10 0 6 5 10 10 10 6 0 10 -4 10 -10z m-580 -20 c0 -5 -4 -10 -10 -10 -5 0
-10 5 -10 10 0 6 5 10 10 10 6 0 10 -4 10 -10z m-17 -30 c14 -16 33 -30 41
-30 21 0 20 -16 0 -24 -20 -8 -42 10 -67 53 -23 40 -6 40 26 1z m247 22 c0 -5
-11 -19 -25 -32 -28 -27 -36 -8 -8 22 17 19 33 24 33 10z m454 -22 c5 5 14 10
20 10 15 0 -27 -29 -43 -30 -8 0 -20 8 -27 18 -22 28 -16 35 13 12 18 -14 30
-17 37 -10z m-740 -11 c38 -45 32 -58 -9 -19 -19 19 -35 38 -35 42 0 17 19 7
44 -23z m317 18 c-1 -12 -15 -9 -19 4 -3 6 1 10 8 8 6 -3 11 -8 11 -12z m119
3 c0 -5 -4 -10 -10 -10 -5 0 -10 5 -10 10 0 6 5 10 10 10 6 0 10 -4 10 -10z
m-480 -41 c0 -6 -4 -7 -10 -4 -5 3 -10 11 -10 16 0 6 5 7 10 4 6 -3 10 -11 10
-16z m705 11 c-3 -5 -10 -10 -16 -10 -5 0 -9 5 -9 10 0 6 7 10 16 10 8 0 12
-4 9 -10z m-513 -17 c9 -10 19 -28 23 -41 5 -17 11 -21 27 -16 14 4 18 2 14
-5 -15 -23 -46 -10 -71 29 -14 22 -25 42 -25 45 0 11 18 4 32 -12z m258 -8 c7
-8 9 -15 6 -15 -4 0 -14 7 -22 15 -9 8 -11 15 -6 15 5 0 15 -7 22 -15z m158 8
c-10 -2 -26 -2 -35 0 -10 3 -2 5 17 5 19 0 27 -2 18 -5z m-324 -28 c3 -9 0
-15 -9 -15 -8 0 -15 7 -15 15 0 8 4 15 9 15 5 0 11 -7 15 -15z m-224 -40 c0
-8 -4 -15 -10 -15 -5 0 -10 7 -10 15 0 8 5 15 10 15 6 0 10 -7 10 -15z m45
-15 c11 -17 -5 -31 -19 -17 -14 12 -12 27 4 27 5 0 12 -4 15 -10z m-15 -60 c8
-5 11 -10 5 -10 -5 0 -17 5 -25 10 -8 5 -10 10 -5 10 6 0 17 -5 25 -10z m110
-35 c0 -21 -5 -19 -25 11 -16 25 -16 25 4 14 12 -6 21 -17 21 -25z m187 -152
c-9 -9 -20 -13 -24 -9 -4 4 -1 11 7 16 25 16 35 11 17 -7z m71 3 c-2 0 -14
-10 -27 -21 -16 -13 -21 -15 -16 -5 16 29 27 40 37 34 5 -3 8 -7 6 -8z m-58
-46 c0 -5 -5 -10 -11 -10 -5 0 -7 5 -4 10 3 6 8 10 11 10 2 0 4 -4 4 -10z
m343 -45 c20 -18 37 -40 37 -47 0 -7 -10 -1 -22 12 -13 14 -34 35 -48 47 -14
13 -20 23 -15 23 6 0 27 -16 48 -35z m-63 -49 c0 -24 -16 -43 -26 -33 -8 7 7
57 17 57 5 0 9 -11 9 -24z m60 -26 c0 -5 -4 -10 -10 -10 -5 0 -10 5 -10 10 0
6 5 10 10 10 6 0 10 -4 10 -10z m-33 -50 c3 -11 9 -20 14 -20 5 0 9 -5 9 -10
0 -6 -11 -3 -25 6 -14 9 -25 23 -25 30 0 21 21 17 27 -6z m-127 -21 c0 -5 -4
-9 -10 -9 -5 0 -10 7 -10 16 0 8 5 12 10 9 6 -3 10 -10 10 -16z m54 -16 c-5
-5 -12 -12 -16 -18 -4 -6 -8 -2 -8 8 0 9 7 17 17 17 9 0 12 -3 7 -7z m66 -55
c0 -12 -14 -10 -28 4 -19 19 -14 29 8 16 11 -7 20 -16 20 -20z m-320 2 c0 -5
-4 -10 -9 -10 -6 0 -13 5 -16 10 -3 6 1 10 9 10 9 0 16 -4 16 -10z m246 -66
c20 -19 34 -37 32 -39 -5 -5 -19 5 -52 43 -40 43 -24 41 20 -4z m-76 -9 c0 -2
-10 -9 -22 -15 -22 -11 -22 -10 -4 4 21 17 26 19 26 11z m70 -45 c0 -5 -4 -10
-10 -10 -5 0 -10 5 -10 10 0 6 5 10 10 10 6 0 10 -4 10 -10z m-146 -15 c-6
-16 -24 -21 -24 -7 0 11 11 22 21 22 5 0 6 -7 3 -15z m46 -59 c0 -2 -7 -9 -15
-16 -13 -11 -14 -10 -9 4 5 14 24 23 24 12z m45 -56 c3 -5 1 -10 -4 -10 -6 0
-11 5 -11 10 0 6 2 10 4 10 3 0 8 -4 11 -10z"/>
<path d="M5460 8810 c8 -5 28 -10 44 -10 39 0 30 6 -19 13 -27 4 -35 3 -25 -3z"/>
<path d="M5645 8775 c61 -12 128 -27 150 -34 22 -6 47 -11 55 -10 20 1 -107
36 -200 54 -41 8 -84 15 -95 14 -11 0 30 -11 90 -24z"/>
<path d="M4758 8783 c-10 -2 -18 -12 -18 -20 0 -14 3 -14 20 2 17 15 26 28 18
24 -2 -1 -11 -3 -20 -6z"/>
<path d="M5871 8726 c2 -2 54 -18 114 -35 61 -18 119 -34 130 -38 11 -3 17 -3
14 1 -7 7 -232 76 -250 76 -7 0 -10 -2 -8 -4z"/>
<path d="M4725 8689 c-4 -6 -5 -12 -2 -15 2 -3 7 2 10 11 7 17 1 20 -8 4z"/>
<path d="M4648 8684 c-5 -4 -8 -15 -8 -24 0 -10 -9 -29 -21 -44 -17 -22 -18
-27 -5 -32 19 -7 38 4 30 17 -3 6 4 13 15 16 14 4 18 9 12 17 -5 6 -11 22 -13
34 -1 13 -6 20 -10 16z"/>
<path d="M4680 8670 c0 -5 7 -10 15 -10 8 0 15 5 15 10 0 6 -7 10 -15 10 -8 0
-15 -4 -15 -10z"/>
<path d="M6170 8637 c7 -7 120 -47 120 -41 0 5 -68 33 -99 41 -14 3 -24 3 -21
0z"/>
<path d="M4944 8611 c-2 -3 -4 -142 -4 -310 l1 -305 83 -115 c45 -64 131 -187
191 -274 61 -87 124 -177 142 -200 18 -23 30 -44 27 -47 -3 -2 -9 2 -14 10 -6
11 -94 132 -137 189 -1 2 -12 -7 -24 -20 -16 -19 -19 -20 -15 -6 16 51 17 64
2 76 -13 11 -16 11 -16 -2 0 -15 -28 -32 -38 -22 -3 3 0 5 6 5 7 0 12 12 12
26 0 23 -4 26 -25 22 -31 -6 -61 31 -42 51 9 9 8 11 -6 5 -9 -3 -24 -1 -32 6
-12 10 -15 9 -15 -4 0 -10 5 -14 10 -11 6 3 10 -1 10 -9 0 -9 5 -16 10 -16 6
0 10 -10 10 -22 -1 -22 -1 -22 -15 -4 -8 10 -19 15 -25 11 -7 -4 -16 -1 -21 6
-4 7 -11 10 -15 6 -4 -3 -2 -13 4 -20 7 -8 9 -17 5 -21 -3 -3 -14 6 -24 20
-17 26 -16 27 15 55 27 25 28 28 11 29 -20 0 -74 -40 -76 -56 -1 -14 -69 -67
-76 -60 -4 4 9 22 30 41 20 19 37 39 37 44 0 6 7 11 15 11 17 0 20 16 5 25
-17 10 -2 23 23 19 17 -3 16 -1 -5 8 -16 7 -28 15 -28 20 0 4 -7 8 -15 8 -21
0 -57 38 -49 51 4 7 -2 9 -17 5 -13 -3 -18 -3 -11 0 6 3 12 14 12 25 0 16 -6
18 -41 15 -27 -3 -39 -1 -36 7 5 17 55 21 73 6 13 -10 17 -10 24 1 11 18 -6
30 -42 30 -15 0 -30 5 -33 10 -3 6 3 10 14 10 11 0 23 5 26 11 4 6 14 8 24 5
12 -5 11 -2 -3 9 -11 8 -26 15 -34 15 -8 0 -12 7 -10 18 2 9 10 16 16 15 13
-3 16 10 5 20 -9 10 -43 -23 -43 -42 -1 -13 -3 -13 -15 3 -19 25 -19 46 0 46
8 0 15 5 15 10 0 6 -12 10 -26 10 -18 0 -25 -4 -21 -14 3 -8 3 -17 -1 -20 -3
-4 -7 -45 -9 -93 -2 -77 0 -86 17 -90 26 -7 26 -33 0 -33 -11 0 -20 -6 -20
-14 0 -8 9 -18 20 -21 11 -3 20 -13 20 -22 0 -14 -2 -14 -19 1 -18 17 -19 14
-19 -116 -1 -91 3 -135 11 -141 9 -7 9 -10 0 -14 -14 -5 -15 -123 -13 -1062 0
-325 -3 -477 -10 -486 -7 -9 -8 -15 -1 -19 14 -9 14 -566 -1 -583 -7 -9 -7
-13 0 -13 18 0 9 -350 -9 -361 -8 -5 -32 -20 -54 -34 -22 -13 -48 -28 -57 -31
-10 -4 -18 -10 -18 -15 0 -13 7 -11 38 7 l27 16 -22 -18 c-13 -11 -47 -32 -75
-47 -29 -16 -45 -22 -35 -14 39 32 13 34 -40 3 -32 -18 -69 -37 -83 -41 -14
-4 -35 -18 -47 -31 -12 -13 -28 -24 -36 -24 -8 0 -22 -9 -32 -20 -22 -24 -14
-25 25 -5 46 24 36 10 -12 -18 -24 -13 -115 -66 -203 -117 -167 -97 -381 -221
-475 -275 -30 -17 -158 -92 -285 -165 -126 -73 -261 -151 -300 -173 -38 -22
-133 -76 -210 -122 -77 -45 -171 -99 -210 -120 -38 -21 -84 -48 -102 -61 -37
-28 -52 -31 -31 -6 8 9 18 30 22 46 4 17 34 86 67 154 32 68 59 126 59 129 0
2 14 32 31 66 17 34 44 94 59 133 16 39 50 113 75 163 26 51 44 95 42 98 -3 3
-16 -15 -28 -39 -38 -72 -115 -231 -133 -271 -11 -27 -21 -37 -31 -33 -8 3
-15 1 -15 -4 0 -6 7 -10 16 -10 25 0 11 -21 -23 -35 -27 -12 -31 -11 -26 1 7
18 -7 17 -31 -1 -19 -14 -19 -15 -2 -28 18 -13 18 -14 2 -20 -25 -10 -66 3
-66 19 0 8 -4 14 -10 14 -18 0 -10 -29 12 -44 19 -14 20 -16 5 -16 -10 0 -32
-7 -50 -16 -21 -12 -32 -13 -35 -5 -2 6 -7 11 -11 11 -12 0 -31 -48 -25 -64 3
-7 -2 -16 -10 -19 -8 -3 -23 -25 -34 -49 -46 -103 -166 -348 -169 -345 -2 2
14 42 36 88 44 95 248 540 279 609 11 25 68 149 127 275 58 127 147 319 197
427 50 109 93 196 95 195 3 -4 -75 -182 -138 -314 -34 -73 -35 -75 -9 -98 19
-18 20 -17 20 3 0 12 5 22 10 22 6 0 10 -4 10 -9 0 -5 6 -11 13 -14 9 -3 13 2
13 15 -1 16 6 21 32 23 37 3 57 15 25 15 -11 0 -27 7 -34 17 -13 15 -11 15 24
9 21 -4 45 -10 53 -13 8 -3 14 1 14 11 0 9 7 16 15 16 19 0 19 -3 -4 -48 -17
-34 -38 -104 -28 -92 2 3 27 55 55 115 90 195 133 289 152 330 37 79 204 444
282 615 44 96 93 204 110 240 17 36 45 97 63 135 18 39 49 106 70 150 20 44
92 202 160 350 67 149 156 342 198 430 80 173 137 300 137 309 0 3 -41 74 -91
158 -50 84 -116 196 -147 248 -31 52 -68 111 -82 130 -14 19 -35 52 -45 73
-11 21 -29 48 -40 60 -11 12 -17 18 -12 13 13 -18 7 -36 -12 -36 -11 0 -22 6
-24 13 -4 8 -6 9 -6 0 -1 -6 6 -18 14 -26 20 -20 7 -29 -18 -12 -18 12 -23 11
-49 -16 -16 -16 -33 -27 -38 -24 -5 3 -10 -5 -12 -17 -3 -21 -5 -20 -28 14
-33 50 -69 52 -101 6 -13 -18 -33 -44 -46 -57 -25 -26 -28 -37 -13 -46 23 -14
7 -21 -25 -11 -19 6 -35 14 -35 18 0 5 -5 8 -11 8 -5 0 -7 -5 -4 -11 8 -12
-25 -40 -42 -34 -8 3 -9 -5 -3 -27 10 -32 9 -32 -45 -13 -14 5 -10 -2 13 -23
36 -33 43 -57 13 -47 -12 3 -21 0 -25 -10 -3 -8 -15 -15 -26 -15 -23 0 -27
-25 -5 -34 8 -3 15 -10 15 -15 0 -5 -19 0 -42 12 -44 22 -98 31 -98 17 0 -5 6
-10 13 -13 6 -2 9 -8 5 -12 -4 -4 -15 -2 -24 6 -15 12 -16 12 -11 -1 4 -8 10
-23 13 -32 4 -11 16 -18 30 -18 13 0 24 -5 24 -11 0 -7 -11 -9 -27 -6 l-28 5
28 -24 28 -24 -30 0 c-17 0 -31 -4 -31 -10 0 -5 -9 -10 -19 -10 -11 0 -21 -5
-23 -11 -2 -6 -32 -12 -71 -12 -68 -2 -80 -12 -38 -33 15 -8 19 -14 11 -19 -6
-4 -17 -2 -25 5 -10 8 -18 7 -34 -6 -20 -17 -20 -17 3 -30 13 -6 36 -9 50 -7
19 4 26 1 26 -11 0 -9 -4 -16 -10 -16 -5 0 -19 -9 -31 -21 -11 -11 -24 -17
-27 -13 -4 3 -1 9 6 11 22 8 13 20 -17 20 -27 0 -28 -3 -25 -36 l3 -36 -19 25
c-19 25 -19 25 -34 5 -13 -17 -15 -18 -16 -3 0 9 9 20 20 23 12 4 20 15 19 28
l0 22 -16 -22 c-8 -13 -21 -23 -29 -23 -7 0 -17 -6 -21 -14 -4 -8 -19 -16 -33
-18 -17 -2 -30 -14 -40 -35 -8 -18 -21 -33 -27 -33 -7 0 -13 -4 -13 -9 0 -11
47 -24 60 -16 5 3 23 -8 41 -25 24 -21 29 -30 17 -30 -9 0 -20 5 -23 10 -3 6
-15 10 -26 10 -17 0 -18 -3 -8 -22 6 -13 21 -33 32 -45 32 -36 6 -27 -35 12
-37 33 -48 55 -28 55 6 0 10 5 10 11 0 8 -5 7 -15 -1 -13 -11 -18 -10 -30 6
-13 17 -14 18 -15 2 0 -21 -30 -24 -48 -6 -8 8 -12 9 -12 1 0 -6 6 -14 13 -16
7 -4 3 -8 -10 -12 -30 -9 -30 -25 0 -26 20 -1 19 -2 -5 -11 -16 -5 -28 -14
-28 -19 0 -5 -7 -9 -16 -9 -18 0 71 -102 93 -108 7 -2 13 -8 13 -13 0 -9 -16
-7 -88 11 -28 7 -32 6 -30 -8 2 -11 -5 -18 -20 -20 -20 -3 -23 0 -18 16 9 26
-13 40 -29 19 -7 -10 -17 -17 -24 -17 -22 0 -11 -15 22 -28 61 -26 77 -35 77
-49 0 -7 -7 -13 -15 -13 -8 0 -12 6 -9 13 2 7 -3 13 -13 14 -10 1 -36 6 -57
12 -22 5 -44 7 -48 5 -13 -8 1 -24 20 -24 26 -1 54 -46 50 -83 l-3 -32 -23 23
c-23 23 -52 30 -52 12 0 -5 -6 -10 -14 -10 -7 0 -22 -12 -32 -27 -10 -16 -19
-23 -22 -15 -6 18 -20 14 -33 -9 -9 -17 -7 -30 7 -60 9 -22 14 -43 9 -47 -4
-4 -10 -1 -12 6 -5 13 -33 17 -33 4 0 -4 6 -14 13 -22 6 -7 -2 -4 -20 8 -38
27 -43 27 -41 5 3 -42 -5 -59 -35 -79 -25 -15 -37 -18 -50 -10 -26 16 -29 2
-11 -44 18 -45 11 -59 -28 -60 -11 0 -15 -6 -11 -19 3 -12 11 -17 19 -14 19 7
18 -11 -1 -27 -10 -9 -15 -9 -15 -1 0 6 -11 11 -25 11 -16 0 -25 -6 -25 -15 0
-12 -8 -14 -42 -9 -24 4 -49 11 -56 17 -9 7 -18 4 -31 -12 -10 -11 -23 -21
-30 -21 -14 0 -14 -9 4 -40 l14 -25 1 24 c0 17 4 22 16 17 8 -3 12 -2 9 4 -3
6 3 10 14 10 12 0 21 -6 21 -14 0 -8 4 -16 9 -18 11 -4 2 -58 -9 -58 -13 0
-22 34 -11 38 12 4 15 22 3 22 -16 0 -33 -41 -23 -54 20 -24 -2 -26 -28 -4
l-26 23 23 -26 c41 -47 27 -59 -40 -35 -27 10 -38 10 -41 2 -3 -6 -16 -1 -32
14 -19 17 -29 21 -32 13 -5 -15 -33 -17 -33 -3 0 6 7 10 15 10 8 0 15 5 15 10
0 6 -4 10 -10 10 -13 0 -44 49 -37 57 4 3 13 0 22 -7 9 -7 18 -10 22 -7 3 4
-5 15 -17 25 -23 19 -23 19 -6 62 12 31 14 45 6 50 -7 4 -8 18 -4 33 4 20 13
27 30 27 13 0 24 5 24 10 0 6 -7 10 -15 10 -8 0 -15 5 -15 10 0 6 4 10 9 10 6
0 13 -4 16 -10 9 -15 35 -12 35 4 0 8 -6 16 -13 19 -19 7 -9 65 11 69 11 2 16
14 17 33 0 21 7 33 23 40 24 11 29 34 10 54 -13 14 -9 14 37 -5 10 -4 13 -2
10 8 -3 8 -1 26 4 40 6 17 6 29 -2 37 -19 19 1 24 28 7 14 -9 25 -12 25 -6 0
5 -9 15 -20 22 -26 16 -26 31 0 23 15 -5 18 -3 14 9 -7 19 0 20 27 6 25 -14
24 -2 -2 26 l-22 23 26 6 c29 8 43 33 27 49 -17 17 -11 26 16 26 19 0 25 4 22
18 -2 9 3 22 12 29 11 9 11 12 2 13 -18 0 18 49 37 50 18 0 61 47 61 66 0 8 7
17 15 20 11 4 13 13 9 28 -6 19 -5 19 10 7 9 -8 20 -10 24 -6 4 4 1 10 -5 12
-18 6 -16 23 1 23 8 0 18 9 21 21 4 11 16 24 28 29 21 8 21 9 -3 10 -24 1 -24
1 6 14 17 8 34 21 37 30 4 9 13 16 22 16 8 0 15 7 15 15 0 8 5 15 10 15 6 0 8
11 4 25 -6 24 -5 26 22 19 26 -6 27 -5 16 8 -11 14 -9 20 13 42 14 14 30 26
35 26 6 0 10 7 10 15 0 8 7 15 15 15 9 0 18 7 22 16 10 27 54 69 72 69 9 0 16
7 16 15 0 8 11 20 25 27 14 6 40 25 59 42 19 17 43 33 53 37 10 3 18 10 18 15
0 5 9 9 19 9 10 0 22 7 25 16 3 9 13 14 21 11 10 -4 12 -1 8 10 -5 13 -2 15
15 11 13 -4 23 0 26 9 5 12 9 13 21 3 12 -10 15 -10 15 3 0 9 13 17 36 21 28
6 34 11 29 25 -5 16 2 19 45 25 28 4 48 11 45 16 -4 6 5 10 19 10 13 0 31 6
38 13 7 8 29 17 48 20 19 4 44 17 57 28 12 12 29 19 37 16 9 -4 18 -2 21 3 4
6 15 10 26 10 10 0 19 5 19 10 0 6 -5 10 -11 10 -5 0 -8 4 -5 9 3 5 15 7 26 4
11 -3 28 1 37 8 12 11 17 11 20 2 6 -16 33 -5 33 13 0 17 5 17 31 4 13 -8 19
-7 19 1 0 18 -82 170 -95 175 -6 3 -37 -9 -68 -26 -32 -17 -63 -28 -70 -24 -7
4 -9 4 -5 -1 5 -4 -40 -35 -100 -68 -310 -171 -600 -393 -864 -660 -129 -130
-310 -340 -362 -420 l-18 -26 -40 30 c-23 16 -47 29 -54 29 -8 0 -11 6 -8 15
4 8 1 15 -5 15 -23 0 -10 15 15 16 34 2 40 10 20 29 -18 18 -22 45 -6 45 6 0
10 7 10 15 0 21 -13 19 -28 -5 -7 -11 -20 -20 -31 -20 -20 0 -58 -37 -48 -47
4 -3 15 1 25 10 20 18 42 23 42 9 0 -17 -25 -32 -55 -32 -26 -1 -36 -10 -80
-76 -83 -124 -124 -188 -132 -204 -4 -7 -23 -41 -43 -75 -35 -57 -197 -379
-201 -400 -1 -5 -15 -41 -31 -80 -16 -38 -38 -97 -49 -130 -11 -33 -24 -68
-29 -77 -17 -30 -66 -206 -111 -398 -25 -110 -49 -244 -54 -306 -1 -11 -4 -24
-7 -30 -3 -5 -9 -56 -13 -114 -4 -58 -9 -109 -12 -113 -9 -15 -4 -533 6 -642
11 -113 13 -128 32 -255 31 -214 119 -585 155 -652 8 -14 14 -34 14 -43 0 -9
4 -14 9 -11 5 4 3 34 -6 72 -13 56 -13 68 -2 75 42 26 43 27 30 43 -11 13 -11
16 3 16 9 0 16 7 16 15 0 8 -4 15 -10 15 -5 0 -14 9 -20 20 -9 16 -8 18 5 14
28 -11 16 4 -21 25 -20 12 -34 25 -31 28 4 3 12 1 19 -4 7 -6 30 -16 51 -23
34 -11 40 -10 52 7 12 16 11 21 -7 40 l-20 21 27 18 c23 15 26 22 20 53 -4 26
-3 32 4 21 6 -8 11 -23 11 -32 0 -42 109 -368 194 -578 l26 -65 -24 30 c-13
16 -22 35 -19 41 2 6 -4 14 -14 18 -10 3 -24 9 -32 12 -10 5 -12 2 -8 -10 4
-10 1 -16 -7 -16 -8 0 -16 -5 -18 -11 -3 -8 -13 -7 -33 3 -51 26 -93 30 -104
10 -11 -20 -10 -21 -39 42 -13 26 -25 46 -29 43 -3 -3 4 -26 16 -51 22 -48 57
-127 71 -161 5 -11 36 -78 70 -150 189 -397 477 -796 800 -1109 102 -99 124
-116 135 -105 11 12 401 674 583 989 30 52 61 102 68 111 20 22 18 43 -3 35
-9 -4 -52 -10 -95 -13 -66 -5 -80 -3 -91 11 -10 13 -22 15 -59 10 -27 -4 -48
-11 -48 -15 0 -5 21 -10 48 -11 55 -2 76 1 -210 -23 -205 -17 -230 -18 -208
-6 8 5 74 12 145 15 134 7 165 12 165 25 0 10 -61 8 -77 -2 -7 -4 -72 -10
-144 -13 -73 -2 -135 -7 -138 -10 -3 -3 1 -9 9 -14 22 -13 2 -17 -120 -25 -58
-3 -146 -9 -197 -13 -50 -4 -89 -4 -87 0 3 5 17 8 32 9 15 0 36 5 47 10 19 9
18 9 -3 5 -33 -6 -27 8 16 31 20 11 76 44 124 72 115 68 255 149 293 171 17 9
116 66 220 127 105 60 314 181 465 268 151 87 354 204 450 260 96 56 315 182
485 280 171 98 423 244 560 324 356 206 401 231 418 231 14 0 94 -45 357 -200
63 -38 225 -132 360 -211 135 -78 269 -156 298 -173 30 -17 66 -37 80 -45 15
-7 104 -58 197 -113 94 -54 179 -104 190 -110 96 -55 136 -78 175 -103 25 -16
65 -40 90 -53 25 -13 49 -30 53 -38 4 -8 14 -14 21 -14 7 0 25 -9 40 -21 14
-11 26 -17 26 -13 0 4 11 -5 25 -20 13 -14 31 -26 40 -26 24 0 75 -32 75 -46
0 -7 8 -10 22 -6 14 3 19 2 14 -6 -11 -18 3 -35 19 -22 9 7 22 1 50 -25 21
-19 36 -38 32 -42 -4 -3 -51 -8 -105 -10 -53 -2 -117 -7 -142 -12 -78 -15
-166 -23 -151 -13 20 14 -1 21 -29 9 -14 -6 -53 -16 -87 -22 -54 -9 -65 -9
-78 5 -11 10 -18 12 -23 4 -12 -18 -80 -25 -86 -8 -3 8 -12 14 -21 14 -8 0
-15 5 -15 10 0 13 -57 13 -65 1 -5 -10 6 -15 63 -26 24 -5 31 -10 24 -17 -8
-8 -20 -7 -41 2 -16 6 -35 9 -42 5 -6 -5 -26 -9 -43 -10 -17 -1 -41 -5 -53 -9
-18 -6 -21 -4 -16 14 3 11 1 20 -5 20 -5 0 -12 -8 -15 -19 -8 -32 -117 -32
-117 1 0 4 -7 8 -16 8 -13 0 -14 -3 -4 -15 10 -12 10 -16 -1 -19 -32 -9 -157
-25 -199 -25 l-45 0 33 30 c17 16 32 31 32 33 0 14 -52 -13 -70 -36 -12 -16
-35 -30 -55 -34 -19 -3 -40 -13 -47 -22 -12 -14 -4 -14 72 -8 168 15 276 25
343 32 65 7 67 6 67 -16 0 -19 -2 -20 -15 -10 -12 10 -58 9 -227 -4 -244 -19
-287 -23 -325 -32 -20 -5 -25 -3 -18 4 6 6 26 14 45 19 25 7 36 15 38 32 3 22
3 22 -21 6 -15 -9 -53 -18 -92 -20 -37 -2 -80 -7 -96 -10 -16 -4 -29 -3 -29 2
0 12 -60 4 -77 -9 -7 -5 -17 -7 -23 -3 -12 7 -13 -5 -2 -22 6 -9 24 -10 72 -3
103 14 160 18 160 11 0 -4 -60 -13 -132 -19 -73 -7 -176 -17 -228 -22 -124
-13 -376 -36 -567 -51 -84 -7 -153 -15 -153 -18 0 -4 -21 -5 -46 -2 -25 2 -50
-1 -56 -7 -6 -6 -25 -8 -43 -5 -18 3 -64 0 -101 -6 -40 -7 -71 -8 -76 -3 -8 8
13 11 212 27 36 3 79 7 95 10 81 10 243 26 360 35 72 5 198 16 280 24 83 9
160 16 173 16 12 0 22 4 22 9 0 15 -68 20 -133 10 -42 -7 -63 -7 -65 0 -2 7
-12 5 -25 -3 -12 -8 -45 -14 -74 -13 -30 0 -58 -5 -67 -13 -9 -7 -19 -10 -23
-7 -3 4 5 15 18 26 13 11 19 20 13 21 -6 0 -17 -7 -24 -15 -7 -9 -20 -13 -29
-10 -9 2 -29 -2 -45 -10 -39 -21 -110 -20 -102 0 7 19 -1 19 -19 1 -27 -26
-235 -53 -235 -30 0 7 6 14 13 17 9 3 9 7 -2 20 -7 10 -18 17 -23 17 -6 0 -5
-7 3 -16 10 -13 10 -17 -2 -25 -37 -25 -53 -30 -124 -36 -42 -3 -78 -10 -81
-14 -2 -4 -26 -5 -53 -2 -31 3 -51 1 -55 -6 -5 -8 -15 -7 -34 3 -35 17 -66 14
-91 -8 -19 -17 -21 -17 -27 -2 -4 11 -13 14 -31 10 -15 -4 -28 -2 -33 6 -5 9
-9 9 -14 1 -4 -6 -2 -11 3 -11 6 0 11 -4 11 -10 0 -12 -37 -14 -44 -2 -8 13
-87 1 -93 -14 -7 -19 -23 -18 -23 1 0 18 -1 18 -36 0 -16 -8 -39 -15 -51 -15
-20 0 -21 3 -12 26 13 35 2 45 -20 17 -14 -16 -21 -19 -30 -10 -8 8 -11 5 -11
-11 0 -26 -6 -27 -27 -6 -15 14 -18 13 -39 -13 -19 -22 -25 -25 -33 -14 -6 9
-18 11 -35 7 -19 -5 -26 -3 -26 9 0 8 -6 15 -14 15 -20 0 -29 -17 -14 -23 12
-5 1 -7 -44 -11 -7 -1 -16 -5 -19 -9 -5 -7 -39 -10 -178 -16 -20 -1 -22 -4
-13 -13 17 -17 15 -38 -3 -38 -8 0 -15 -7 -15 -15 0 -8 -11 -34 -24 -58 -18
-32 -22 -47 -14 -55 8 -8 4 -14 -15 -21 -19 -7 -24 -15 -20 -30 4 -15 1 -21
-11 -21 -10 0 -16 -9 -16 -25 0 -13 -8 -29 -19 -34 -24 -13 -53 -74 -45 -95 4
-11 1 -16 -10 -16 -19 0 -22 -20 -3 -20 6 -1 -4 -14 -23 -30 -19 -17 -31 -30
-26 -30 4 0 -2 -13 -13 -29 -12 -16 -21 -36 -21 -45 0 -9 -4 -16 -10 -16 -5 0
-10 -7 -10 -15 0 -8 -5 -15 -10 -15 -6 0 -14 -8 -17 -17 -4 -10 -24 -45 -45
-78 -21 -33 -38 -66 -38 -73 0 -8 -9 -25 -20 -39 -11 -14 -20 -34 -20 -45 0
-11 -16 -40 -35 -65 -19 -25 -35 -54 -35 -64 0 -11 -4 -19 -10 -19 -8 0 -53
-83 -54 -102 -1 -3 -10 -17 -21 -30 -42 -48 -58 -80 -45 -88 10 -6 9 -10 -1
-16 -8 -5 -25 -31 -38 -57 l-25 -49 35 -26 c18 -15 56 -47 83 -71 141 -125
553 -358 836 -474 536 -218 1056 -310 1666 -293 248 6 286 12 298 41 6 16 5
16 -18 1 -14 -9 -33 -16 -43 -16 -12 0 -7 7 16 21 18 11 47 33 65 49 17 17 36
30 43 30 7 0 17 9 23 20 6 12 16 17 22 14 8 -5 -4 -21 -32 -45 -66 -57 -43
-56 40 2 52 37 75 48 80 39 4 -7 13 -9 19 -6 6 4 18 0 27 -8 20 -21 40 -20 54
2 9 16 11 16 20 0 6 -9 17 -15 25 -12 8 4 15 1 15 -6 0 -6 5 -8 10 -5 6 4 7
11 4 17 -11 17 18 28 73 28 28 0 55 5 58 10 3 6 13 10 21 10 8 0 14 -4 14 -10
0 -5 -7 -10 -16 -10 -9 0 -26 -10 -38 -23 -14 -15 -46 -29 -91 -39 -115 -27
-273 -50 -295 -43 -11 4 -20 2 -20 -4 0 -6 -13 -11 -30 -11 -16 0 -30 -5 -30
-11 0 -8 18 -9 58 -5 84 10 228 35 302 52 36 8 85 19 110 25 25 5 86 22 135
36 803 229 1502 690 2020 1333 99 122 195 253 195 264 0 3 -9 6 -20 6 -11 0
-20 5 -20 10 0 6 13 10 28 10 16 0 36 8 44 18 15 17 89 138 133 217 41 72 125
228 125 231 0 2 18 41 40 88 86 187 166 406 225 621 9 33 19 68 21 78 5 16 1
17 -33 12 -21 -4 -50 -15 -65 -26 -15 -10 -34 -19 -43 -19 -8 0 -15 -4 -15
-10 0 -5 9 -10 20 -10 11 0 20 5 20 10 0 6 7 10 15 10 8 0 15 -6 15 -14 0 -8
3 -21 6 -30 4 -11 1 -16 -10 -16 -9 0 -27 -7 -39 -15 -14 -8 -28 -11 -36 -6
-21 13 -3 32 25 25 13 -3 24 -2 24 4 0 17 -60 20 -69 4 -7 -12 -11 -12 -30 -1
-18 12 -23 12 -31 -1 -7 -11 -10 -11 -10 -2 0 7 -4 10 -10 7 -5 -3 -10 -15
-10 -25 0 -18 3 -18 27 -7 20 9 27 9 30 0 3 -7 11 -9 18 -6 8 3 22 -3 31 -12
14 -14 15 -21 5 -43 -24 -54 -63 -100 -94 -113 -41 -17 -57 -33 -57 -56 1 -17
2 -17 18 2 9 11 39 31 67 45 27 14 56 31 63 38 7 6 20 12 28 12 17 0 17 1 5
34 -7 18 -6 28 4 36 8 7 12 16 9 21 -3 5 2 9 10 9 9 0 16 -6 16 -14 0 -8 6
-16 13 -19 14 -4 -11 -109 -45 -190 -21 -48 -32 -57 -42 -34 -4 6 -4 2 -2 -10
3 -18 -2 -23 -26 -29 -18 -3 -32 -14 -35 -25 -3 -10 -13 -19 -23 -19 -10 0
-25 -7 -34 -15 -8 -8 -19 -15 -25 -15 -6 0 -36 -26 -68 -58 -32 -31 -71 -64
-88 -72 -16 -8 -36 -21 -43 -27 -7 -7 -19 -13 -27 -13 -17 0 -28 -42 -12 -52
8 -5 6 -9 -6 -12 -9 -4 -25 -9 -34 -13 -10 -3 -21 -6 -24 -5 -4 1 -6 -12 -5
-27 2 -25 -4 -32 -51 -55 -43 -21 -53 -30 -53 -51 0 -25 0 -25 -30 -10 -29 15
-30 16 -14 40 9 14 12 25 6 25 -6 0 -14 -9 -17 -20 -3 -11 -10 -20 -14 -20
-10 0 -144 73 -346 189 l-160 92 -95 -11 c-121 -13 -471 -47 -620 -60 -63 -5
-132 -13 -154 -16 -24 -4 -36 -3 -32 4 5 9 -29 26 -47 23 -5 -1 -6 8 -2 19 4
12 2 20 -5 20 -6 0 -8 -4 -5 -10 8 -13 -1 -13 -26 0 -26 15 -24 29 4 23 l22
-6 -24 23 c-18 18 -25 20 -31 10 -6 -9 -9 -6 -12 11 -3 24 -4 24 -102 21 -55
-2 -119 -7 -143 -11 -44 -9 -73 4 -31 14 13 2 129 14 258 25 234 20 353 31
525 50 50 5 113 10 140 11 103 1 98 7 -120 138 l-206 123 26 24 c32 29 35 30
28 4 -4 -17 0 -20 25 -20 17 0 33 6 35 13 3 7 6 5 6 -5 1 -20 9 -22 30 -9 12
8 12 12 2 25 -12 14 -10 16 10 16 13 0 34 3 47 6 16 5 22 2 22 -10 0 -10 -8
-16 -22 -16 -12 0 -19 -3 -15 -6 3 -4 18 -3 32 0 20 5 25 11 20 26 -8 27 16
26 33 0 13 -21 32 -27 32 -10 0 20 -73 60 -98 53 -20 -5 -23 -3 -19 13 7 21
-91 82 -676 416 -362 206 -497 287 -497 294 0 5 104 -51 127 -68 7 -5 25 -5
45 1 18 5 25 10 16 10 -30 2 -152 53 -175 74 -21 18 -28 17 -24 -6 1 -4 -17 2
-40 13 -22 12 -39 24 -36 27 3 3 16 -2 29 -11 30 -21 38 -20 38 4 0 13 -5 17
-14 14 -17 -7 -165 73 -173 92 -3 8 -11 14 -17 14 -16 0 -75 31 -146 75 -30
19 -74 44 -98 55 -24 10 -55 28 -69 40 -35 27 -63 27 -32 -1 16 -14 4 -10 -36
12 -167 90 -192 118 -160 181 19 38 19 39 0 32 -12 -5 -15 2 -15 34 0 23 5 44
10 47 8 5 8 11 1 19 -13 16 -13 1213 -1 1221 5 3 6 16 1 28 -12 33 -8 1130 4
1133 8 3 99 -115 155 -201 15 -23 142 -204 218 -310 23 -33 48 -71 55 -85 6
-13 22 -35 33 -47 12 -13 34 -42 50 -65 16 -24 63 -90 104 -148 111 -155 180
-257 180 -266 0 -4 6 -12 14 -18 11 -9 118 -155 188 -260 7 -10 24 -33 38 -52
14 -18 40 -55 58 -81 18 -26 75 -107 125 -178 51 -72 100 -143 111 -159 10
-16 64 -91 120 -167 123 -168 264 -372 273 -396 4 -10 12 -21 19 -25 7 -5 38
-47 70 -95 32 -48 84 -122 117 -165 52 -69 57 -81 45 -96 -11 -15 -11 -16 3
-5 13 11 24 1 73 -72 31 -46 68 -94 81 -107 14 -13 25 -26 25 -29 0 -8 54 -86
114 -167 l38 -53 157 6 c203 7 695 14 984 15 150 0 227 4 227 10 0 6 -10 9
-22 8 -13 -2 -23 2 -23 7 0 6 12 9 27 7 22 -3 27 0 22 12 -3 8 -14 18 -25 21
-19 6 -27 25 -11 25 14 0 68 -67 64 -79 -5 -15 107 -11 116 4 3 5 14 66 23
135 23 163 20 639 -5 835 -32 252 -79 482 -146 705 -57 194 -178 492 -262 648
-15 29 -28 59 -28 67 0 8 -4 15 -9 15 -5 0 -13 9 -16 21 -4 11 -19 40 -35 62
-15 23 -40 66 -55 95 -15 28 -31 52 -35 52 -5 0 -12 10 -16 23 -4 12 -20 38
-35 58 -16 20 -29 40 -29 43 0 15 -215 293 -242 314 -10 7 -18 19 -18 26 0 7
-19 31 -42 53 -24 22 -63 64 -88 93 -25 29 -60 67 -79 84 -53 48 -149 137
-193 179 -21 20 -46 37 -54 37 -8 0 -18 8 -22 19 -8 21 -85 88 -119 104 -13 6
-23 14 -23 19 0 4 -3 7 -7 6 -18 -3 -41 15 -36 28 5 12 -32 35 -62 38 -14 2
-75 35 -75 42 0 3 5 2 10 -1 6 -3 10 -2 10 3 0 13 -29 24 -42 15 -7 -3 -8 -1
-4 5 4 7 1 12 -8 12 -9 0 -69 32 -134 71 -197 119 -583 299 -642 299 -11 0
-20 -5 -20 -11 0 -5 3 -8 8 -6 4 3 21 -1 37 -9 l30 -14 -31 4 c-31 5 -43 -7
-48 -49 -1 -5 -5 -16 -10 -24 -7 -11 -10 -11 -17 0 -7 11 -10 9 -15 -8 -4 -13
-10 -23 -15 -23 -5 0 -9 -7 -9 -15 0 -11 5 -12 23 -6 22 8 23 7 19 -15 -3 -18
-9 -23 -20 -19 -185 71 -510 159 -712 194 -195 33 -552 66 -566 52z m-1184
-701 c0 -5 -4 -10 -10 -10 -5 0 -10 5 -10 10 0 6 5 10 10 10 6 0 10 -4 10 -10z
m-83 -27 c-9 -9 -19 -14 -23 -11 -10 10 6 28 24 28 15 0 15 -1 -1 -17z m-182
-13 c-3 -5 -10 -10 -16 -10 -5 0 -9 5 -9 10 0 6 7 10 16 10 8 0 12 -4 9 -10z
m-175 -160 c0 -5 -4 -10 -9 -10 -6 0 -13 5 -16 10 -3 6 1 10 9 10 9 0 16 -4
16 -10z m1480 -110 c0 -5 -7 -10 -16 -10 -8 0 -12 5 -9 10 3 6 10 10 16 10 5
0 9 -4 9 -10z m317 -37 c-3 -2 -14 4 -25 15 -11 11 -18 23 -15 25 2 3 14 -4
25 -15 11 -11 17 -22 15 -25z m-287 -3 c0 -5 -4 -10 -10 -10 -5 0 -10 5 -10
10 0 6 5 10 10 10 6 0 10 -4 10 -10z m320 -30 c0 -5 -4 -10 -10 -10 -5 0 -10
5 -10 10 0 6 5 10 10 10 6 0 10 -4 10 -10z m-1710 -40 c0 -5 -2 -10 -4 -10 -3
0 -8 5 -11 10 -3 6 -1 10 4 10 6 0 11 -4 11 -10z m1493 -7 c-7 -2 -19 -2 -25
0 -7 3 -2 5 12 5 14 0 19 -2 13 -5z m-1833 -54 c0 -6 -4 -7 -10 -4 -5 3 -10
11 -10 16 0 6 5 7 10 4 6 -3 10 -11 10 -16z m-40 -18 c0 -5 -8 -11 -17 -15
-10 -3 -24 -9 -30 -12 -7 -3 -13 -1 -13 5 0 6 7 11 15 11 8 0 15 5 15 10 0 6
7 10 15 10 8 0 15 -4 15 -9z m-80 -15 c0 -3 -4 -8 -10 -11 -5 -3 -10 -1 -10 4
0 6 5 11 10 11 6 0 10 -2 10 -4z m2428 -71 c-3 -3 -9 2 -12 12 -6 14 -5 15 5
6 7 -7 10 -15 7 -18z m-21 -1 c-3 -3 -12 -4 -19 -1 -8 3 -5 6 6 6 11 1 17 -2
13 -5z m-107 -25 c0 -5 -4 -9 -10 -9 -5 0 -10 7 -10 16 0 8 5 12 10 9 6 -3 10
-10 10 -16z m-1379 -66 c-12 -20 -14 -14 -5 12 4 9 9 14 11 11 3 -2 0 -13 -6
-23z m-1181 -1 c0 -4 12 -15 28 -25 27 -18 27 -18 2 -11 -29 7 -50 23 -50 35
0 5 5 9 10 9 6 0 10 -3 10 -8z m820 4 c0 -3 -4 -8 -10 -11 -5 -3 -10 -1 -10 4
0 6 5 11 10 11 6 0 10 -2 10 -4z m-600 -26 c0 -5 -2 -10 -4 -10 -3 0 -8 5 -11
10 -3 6 -1 10 4 10 6 0 11 -4 11 -10z m-80 -21 c0 -11 -27 -12 -34 0 -3 4 -3
11 0 14 8 8 34 -3 34 -14z m996 -56 c-8 -15 -15 -25 -16 -21 0 12 23 58 27 54
3 -2 -2 -17 -11 -33z m-1069 12 c8 -9 13 -18 10 -21 -6 -7 -47 18 -47 28 0 13
21 9 37 -7z m68 5 c4 -6 16 -8 28 -5 19 5 20 5 4 -5 -19 -12 -57 -5 -57 11 0
12 17 12 25 -1z m159 -62 c4 -17 2 -28 -4 -28 -5 0 -10 14 -10 32 0 36 4 35
14 -4z m-389 2 c-3 -5 -10 -10 -16 -10 -5 0 -9 5 -9 10 0 6 7 10 16 10 8 0 12
-4 9 -10z m-838 -36 c24 -22 25 -26 12 -39 -13 -13 -17 -13 -34 0 -17 13 -18
16 -5 25 15 10 11 12 -24 14 -29 2 -30 21 0 22 14 1 36 -8 51 -22z m873 6 c0
-19 -11 -26 -23 -14 -8 8 3 34 14 34 5 0 9 -9 9 -20z m1146 -37 c-8 -15 -15
-25 -16 -21 0 12 23 58 27 54 3 -2 -2 -17 -11 -33z m-1188 -50 c5 -18 -10 -16
-34 2 -18 15 -18 15 5 13 14 -2 26 -9 29 -15z m1143 -46 c-10 -9 -11 -8 -5 6
3 10 9 15 12 12 3 -3 0 -11 -7 -18z m-931 3 c0 -5 -4 -10 -10 -10 -5 0 -10 5
-10 10 0 6 5 10 10 10 6 0 10 -4 10 -10z m110 -20 c0 -5 -4 -10 -10 -10 -5 0
-10 5 -10 10 0 6 5 10 10 10 6 0 10 -4 10 -10z m810 -8 c0 -5 -7 -17 -15 -28
-14 -18 -14 -17 -4 9 12 27 19 34 19 19z m-1165 -12 c10 -16 -5 -34 -18 -21
-6 6 -19 11 -29 11 -10 0 -18 5 -18 10 0 6 13 10 29 10 17 0 33 -4 36 -10z
m-85 -100 c0 -5 -2 -10 -4 -10 -3 0 -8 5 -11 10 -3 6 -1 10 4 10 6 0 11 -4 11
-10z m612 -22 c-9 -9 -15 -9 -24 0 -9 9 -7 12 12 12 19 0 21 -3 12 -12z m-772
-58 c0 -5 -4 -10 -10 -10 -5 0 -10 5 -10 10 0 6 5 10 10 10 6 0 10 -4 10 -10z
m100 -11 c0 -6 -4 -7 -10 -4 -5 3 -10 11 -10 16 0 6 5 7 10 4 6 -3 10 -11 10
-16z m-140 -29 c0 -5 -2 -10 -4 -10 -3 0 -8 5 -11 10 -3 6 -1 10 4 10 6 0 11
-4 11 -10z m35 1 c3 -5 1 -12 -5 -16 -5 -3 -10 1 -10 9 0 18 6 21 15 7z m3380
-11 c-10 -11 -20 -18 -23 -15 -7 6 18 35 31 35 5 0 2 -9 -8 -20z m-3190 -20
c-3 -5 -11 -10 -16 -10 -6 0 -7 5 -4 10 3 6 11 10 16 10 6 0 7 -4 4 -10z
m1056 -103 c-10 -9 -11 -8 -5 6 3 10 9 15 12 12 3 -3 0 -11 -7 -18z m-1186 -7
c3 -5 1 -10 -4 -10 -6 0 -11 5 -11 10 0 6 2 10 4 10 3 0 8 -4 11 -10z m3593
-15 c-3 -3 -9 2 -12 12 -6 14 -5 15 5 6 7 -7 10 -15 7 -18z m-3808 -1 c0 -3
-7 -12 -15 -21 -20 -19 -32 -10 -14 11 14 15 29 21 29 10z m1373 -39 c-3 -9
-8 -14 -10 -11 -3 3 -2 9 2 15 9 16 15 13 8 -4z m-1423 -5 c0 -5 -7 -10 -15
-10 -8 0 -15 5 -15 10 0 6 7 10 15 10 8 0 15 -4 15 -10z m125 -10 c3 -5 1 -10
-4 -10 -6 0 -11 5 -11 10 0 6 2 10 4 10 3 0 8 -4 11 -10z m135 -20 c0 -19 -28
-10 -33 10 -4 17 -2 18 14 9 10 -5 19 -14 19 -19z m-69 -17 c13 -17 13 -17 -6
-3 -11 8 -22 16 -24 17 -2 2 0 3 6 3 6 0 17 -8 24 -17z m99 7 c0 -5 -4 -10
-10 -10 -5 0 -10 5 -10 10 0 6 5 10 10 10 6 0 10 -4 10 -10z m1091 -47 c-12
-20 -14 -14 -5 12 4 9 9 14 11 11 3 -2 0 -13 -6 -23z m-1211 -59 c0 -8 -5 -12
-10 -9 -6 4 -8 11 -5 16 9 14 15 11 15 -7z m-330 -14 c0 -5 -4 -10 -10 -10 -5
0 -10 5 -10 10 0 6 5 10 10 10 6 0 10 -4 10 -10z m-330 -30 c0 -5 -4 -10 -10
-10 -5 0 -10 5 -10 10 0 6 5 10 10 10 6 0 10 -4 10 -10z m545 -10 c-3 -5 -10
-10 -16 -10 -5 0 -9 5 -9 10 0 6 7 10 16 10 8 0 12 -4 9 -10z m-515 -26 c0 -9
-5 -14 -12 -12 -18 6 -21 28 -4 28 9 0 16 -7 16 -16z m316 -11 c-7 -7 -26 7
-26 19 0 6 6 6 15 -2 9 -7 13 -15 11 -17z m114 -25 c0 -6 -6 -5 -15 2 -8 7
-15 14 -15 16 0 2 7 1 15 -2 8 -4 15 -11 15 -16z m45 -18 c3 -5 2 -10 -4 -10
-5 0 -13 5 -16 10 -3 6 -2 10 4 10 5 0 13 -4 16 -10z m-195 -42 c0 -5 -10 -6
-22 -2 -30 9 -32 10 -24 30 6 15 8 15 26 -1 11 -10 20 -22 20 -27z m-110 6 c0
-3 -6 -11 -12 -18 -10 -11 -16 -9 -30 10 -25 31 -23 35 12 23 17 -6 30 -13 30
-15z m-72 -14 c18 -24 20 -30 7 -30 -8 0 -15 5 -15 10 0 6 -11 16 -25 22 -29
13 -33 28 -7 28 10 0 28 -13 40 -30z m5792 3 c0 -5 -10 -19 -21 -33 l-20 -25
16 33 c15 30 25 41 25 25z m-5915 -32 c4 -20 11 -28 21 -24 8 3 14 -1 14 -11
0 -19 -11 -21 -27 -5 -8 8 -17 7 -32 -2 -16 -11 -23 -11 -33 -1 -9 9 -8 12 9
12 23 0 36 22 27 45 -4 8 -2 15 4 15 6 0 13 -13 17 -29z m235 19 c0 -5 7 -10
15 -10 8 0 15 -7 15 -16 0 -15 -2 -15 -22 -2 -25 17 -35 38 -19 38 6 0 11 -4
11 -10z m-120 -47 c0 -10 -5 -11 -17 -4 -12 6 -21 5 -31 -7 -12 -15 -12 -15
-7 6 5 16 2 22 -9 22 -24 0 -19 18 7 22 25 4 57 -18 57 -39z m220 27 c0 -5 -4
-10 -10 -10 -5 0 -10 5 -10 10 0 6 5 10 10 10 6 0 10 -4 10 -10z m-122 -19 c3
-8 -1 -12 -9 -9 -7 2 -15 10 -17 17 -3 8 1 12 9 9 7 -2 15 -10 17 -17z m-40
-33 c20 -20 14 -29 -14 -22 -19 5 -25 4 -20 -5 4 -6 16 -11 27 -11 10 0 19 -4
19 -10 0 -5 -8 -10 -17 -10 -21 1 -53 23 -53 37 0 12 22 33 35 33 6 0 16 -5
23 -12z m5689 -18 c-11 -18 -27 -27 -27 -15 0 13 25 43 32 39 4 -3 2 -14 -5
-24z m-5817 -28 c0 -8 -35 -31 -47 -32 -7 0 -13 4 -13 10 0 5 7 7 16 3 14 -5
15 -3 5 15 -7 12 -16 22 -21 22 -5 0 -7 7 -4 15 5 12 11 10 35 -7 16 -12 29
-24 29 -26z m360 38 c0 -5 -2 -10 -4 -10 -3 0 -8 5 -11 10 -3 6 -1 10 4 10 6
0 11 -4 11 -10z m6200 7 c0 -2 -15 -16 -32 -33 l-33 -29 29 33 c28 30 36 37
36 29z m-5082 -36 c2 -6 -2 -11 -10 -11 -23 0 -58 12 -58 20 0 12 64 4 68 -9z
m3167 9 c3 -5 1 -10 -4 -10 -6 0 -11 5 -11 10 0 6 2 10 4 10 3 0 8 -4 11 -10z
m-3675 -26 c0 -8 -7 -14 -15 -14 -8 0 -15 9 -15 20 0 13 5 18 15 14 8 -4 15
-12 15 -20z m-905 -52 c-7 -7 -45 29 -45 41 0 6 11 0 25 -13 14 -13 23 -26 20
-28z m5735 44 c0 -3 -4 -8 -10 -11 -5 -3 -10 -1 -10 4 0 6 5 11 10 11 6 0 10
-2 10 -4z m118 -21 c-6 -14 -13 -23 -15 -21 -5 5 15 46 22 46 3 0 -1 -11 -7
-25z m-5718 1 c0 -11 -19 -15 -25 -6 -3 5 1 10 9 10 9 0 16 -2 16 -4z m1270
-6 c0 -5 -4 -10 -10 -10 -5 0 -10 5 -10 10 0 6 5 10 10 10 6 0 10 -4 10 -10z
m5010 1 c0 -12 -20 -25 -27 -18 -7 7 6 27 18 27 5 0 9 -4 9 -9z m-6534 -28
c-8 -8 -36 5 -36 17 0 7 6 7 21 0 11 -7 18 -14 15 -17z m179 -13 c3 -5 -3 -10
-14 -10 -12 0 -21 5 -21 10 0 6 6 10 14 10 8 0 18 -4 21 -10z m-275 -19 c0 -5
14 -12 30 -16 17 -4 30 -11 30 -16 0 -12 -7 -11 -46 7 -32 15 -45 34 -24 34 6
0 10 -4 10 -9z m5886 -17 c-4 -9 -9 -15 -11 -12 -3 3 -3 13 1 22 4 9 9 15 11
12 3 -3 3 -13 -1 -22z m679 16 c-3 -5 -11 -10 -16 -10 -6 0 -7 5 -4 10 3 6 11
10 16 10 6 0 7 -4 4 -10z m-6277 -22 c-3 -7 -12 -14 -21 -16 -12 -2 -15 1 -11
12 7 19 38 22 32 4z m56 -28 c8 -16 11 -30 6 -30 -10 0 -25 19 -33 43 -11 29
11 19 27 -13z m206 10 c0 -5 -2 -10 -4 -10 -3 0 -8 5 -11 10 -3 6 -1 10 4 10
6 0 11 -4 11 -10z m5968 -10 c-13 -20 -38 -35 -38 -23 0 10 32 43 42 43 4 0 3
-9 -4 -20z m-6218 -10 c0 -5 -2 -10 -4 -10 -3 0 -8 5 -11 10 -3 6 -1 10 4 10
6 0 11 -4 11 -10z m5652 -50 c-9 -16 -21 -30 -25 -30 -9 0 -1 17 21 43 22 25
23 21 4 -13z m-5517 10 c3 -5 1 -10 -4 -10 -6 0 -11 5 -11 10 0 6 2 10 4 10 3
0 8 -4 11 -10z m265 0 c0 -5 -4 -10 -9 -10 -6 0 -13 5 -16 10 -3 6 1 10 9 10
9 0 16 -4 16 -10z m5764 -5 c-4 -8 -11 -15 -16 -15 -6 0 -5 6 2 15 7 8 14 15
16 15 2 0 1 -7 -2 -15z m-5724 -25 c0 -5 -2 -10 -4 -10 -3 0 -8 5 -11 10 -3 6
-1 10 4 10 6 0 11 -4 11 -10z m-320 -36 c0 -8 -4 -12 -10 -9 -5 3 -10 10 -10
16 0 5 5 9 10 9 6 0 10 -7 10 -16z m-300 -14 c0 -5 -4 -10 -9 -10 -6 0 -13 5
-16 10 -3 6 1 10 9 10 9 0 16 -4 16 -10z m40 6 c0 -3 -4 -8 -10 -11 -5 -3 -10
-1 -10 4 0 6 5 11 10 11 6 0 10 -2 10 -4z m6180 -55 c0 -5 -7 -12 -16 -15 -14
-5 -15 -4 -4 9 14 17 20 19 20 6z m-479 -18 c-5 -10 -17 -27 -26 -38 -16 -19
-16 -19 -4 5 13 27 29 50 36 50 2 0 -1 -8 -6 -17z m-5791 -13 c0 -5 -2 -10 -4
-10 -3 0 -8 5 -11 10 -3 6 -1 10 4 10 6 0 11 -4 11 -10z m270 -76 c0 -2 -9 0
-20 6 -11 6 -20 13 -20 16 0 2 9 0 20 -6 11 -6 20 -13 20 -16z m440 6 c0 -5
-5 -10 -11 -10 -5 0 -7 5 -4 10 3 6 8 10 11 10 2 0 4 -4 4 -10z m4820 -6 c0
-8 -4 -12 -10 -9 -5 3 -10 10 -10 16 0 5 5 9 10 9 6 0 10 -7 10 -16z m-5470
-4 c0 -5 -2 -10 -4 -10 -3 0 -8 5 -11 10 -3 6 -1 10 4 10 6 0 11 -4 11 -10z
m5005 -20 c3 -5 1 -10 -4 -10 -6 0 -11 5 -11 10 0 6 2 10 4 10 3 0 8 -4 11
-10z m-4865 -30 c0 -17 -3 -19 -19 -8 -21 13 -19 28 5 28 8 0 14 -9 14 -20z
m215 10 c3 -5 1 -10 -4 -10 -6 0 -11 5 -11 10 0 6 2 10 4 10 3 0 8 -4 11 -10z
m475 -6 c0 -2 -7 -4 -15 -4 -8 0 -15 4 -15 10 0 5 7 7 15 4 8 -4 15 -8 15 -10z
m73 -11 c-7 -2 -19 -2 -25 0 -7 3 -2 5 12 5 14 0 19 -2 13 -5z m-733 -33 c0
-5 -5 -10 -11 -10 -5 0 -7 5 -4 10 3 6 8 10 11 10 2 0 4 -4 4 -10z m-212 -60
c-7 -11 -16 -20 -20 -20 -13 0 -9 28 5 33 23 10 27 7 15 -13z m-278 0 c11 -7
4 -10 -25 -10 -29 0 -36 3 -25 10 8 5 20 10 25 10 6 0 17 -5 25 -10z m329 -26
c3 -16 1 -17 -13 -5 -19 16 -21 34 -3 29 6 -3 14 -13 16 -24z m-249 6 c0 -5
-7 -10 -16 -10 -8 0 -12 5 -9 10 3 6 10 10 16 10 5 0 9 -4 9 -10z m88 -15 c2
-1 -4 -5 -12 -8 -8 -3 -22 1 -33 9 -17 13 -16 14 12 8 17 -4 31 -8 33 -9z
m674 3 c-9 -9 -15 -9 -24 0 -9 9 -7 12 12 12 19 0 21 -3 12 -12z m-569 -19
c-4 -15 -9 -17 -17 -9 -8 8 -7 13 4 20 8 5 16 10 17 10 0 0 -1 -9 -4 -21z
m1057 1 c0 -5 -4 -10 -10 -10 -5 0 -10 5 -10 10 0 6 5 10 10 10 6 0 10 -4 10
-10z m-1264 -15 c18 -13 18 -14 -4 -8 -12 3 -25 9 -28 14 -8 14 10 11 32 -6z
m359 -15 c3 -5 2 -10 -4 -10 -5 0 -13 5 -16 10 -3 6 -2 10 4 10 5 0 13 -4 16
-10z m-80 -28 l30 -10 -30 -1 c-21 -1 -34 6 -44 22 -12 19 -12 20 0 11 8 -6
28 -16 44 -22z m5485 14 c0 -3 -4 -8 -10 -11 -5 -3 -10 -1 -10 4 0 6 5 11 10
11 6 0 10 -2 10 -4z m-4840 -16 c0 -5 -2 -10 -4 -10 -3 0 -8 5 -11 10 -3 6 -1
10 4 10 6 0 11 -4 11 -10z m-765 -30 c10 -11 14 -20 9 -20 -12 1 -44 25 -44
34 0 12 17 6 35 -14z m395 10 c0 -5 -2 -10 -4 -10 -3 0 -8 5 -11 10 -3 6 -1
10 4 10 6 0 11 -4 11 -10z m109 -6 c9 -9 -6 -11 -36 -7 -18 3 -33 10 -33 15 0
9 58 2 69 -8z m76 -14 c3 -5 -1 -10 -9 -10 -9 0 -16 5 -16 10 0 6 4 10 9 10 6
0 13 -4 16 -10z m-620 -10 c3 -5 1 -10 -4 -10 -6 0 -11 5 -11 10 0 6 2 10 4
10 3 0 8 -4 11 -10z m729 1 c3 -5 -10 -9 -29 -8 -19 1 -35 5 -35 9 0 11 57 10
64 -1z m103 -5 c21 -2 94 -10 163 -17 69 -6 132 -16 140 -20 20 -11 -198 1
-228 12 -13 5 -50 9 -83 9 -54 0 -69 7 -53 23 4 4 10 4 15 1 4 -2 25 -6 46 -8z
m-742 -6 c3 -6 -1 -7 -9 -4 -18 7 -21 14 -7 14 6 0 13 -4 16 -10z m5505 0 c0
-5 -5 -10 -11 -10 -5 0 -7 5 -4 10 3 6 8 10 11 10 2 0 4 -4 4 -10z m-5440 -10
c0 -5 -2 -10 -4 -10 -3 0 -8 5 -11 10 -3 6 -1 10 4 10 6 0 11 -4 11 -10z
m1149 -36 c15 -13 -17 -13 -80 0 l-74 14 75 -5 c41 -3 77 -7 79 -9z m71 -10
c0 -2 -14 -4 -31 -4 -16 0 -28 4 -25 9 5 8 56 3 56 -5z m51 -7 c-10 -9 -11 -8
-5 6 3 10 9 15 12 12 3 -3 0 -11 -7 -18z m-566 3 c-3 -5 -12 -10 -18 -10 -7 0
-6 4 3 10 19 12 23 12 15 0z m680 -10 c3 -5 -3 -10 -14 -10 -11 0 -23 5 -26
10 -3 6 3 10 14 10 11 0 23 -4 26 -10z m81 -9 c-5 -8 -56 -3 -56 5 0 2 14 4
31 4 16 0 28 -4 25 -9z m3980 -276 c225 -319 236 -335 231 -335 -3 0 -65 84
-138 188 -73 103 -136 189 -139 192 -4 3 -19 24 -33 47 -14 23 -31 44 -37 48
-6 4 -15 17 -21 28 -5 12 -16 33 -26 47 -13 20 -13 22 -1 10 9 -8 82 -109 164
-225z m559 175 c-3 -5 -10 -10 -16 -10 -5 0 -9 5 -9 10 0 6 7 10 16 10 8 0 12
-4 9 -10z m-5645 -31 c0 -6 -4 -7 -10 -4 -5 3 -10 11 -10 16 0 6 5 7 10 4 6
-3 10 -11 10 -16z m120 1 c0 -5 -4 -10 -10 -10 -5 0 -10 5 -10 10 0 6 5 10 10
10 6 0 10 -4 10 -10z m4800 0 c8 -5 12 -11 10 -14 -3 -2 -14 2 -24 10 -22 15
-10 19 14 4z m-36 -89 c-15 -22 -32 -41 -38 -41 -8 0 -8 3 0 8 5 4 20 24 33
45 13 21 25 36 27 34 3 -2 -8 -23 -22 -46z m-5484 -7 c0 -2 -11 2 -25 8 -14 6
-25 15 -25 20 0 5 11 1 25 -8 14 -9 25 -18 25 -20z m3290 1 c0 -2 -10 -9 -22
-15 -22 -11 -22 -10 -4 4 21 17 26 19 26 11z m-3240 -45 c0 -5 -2 -10 -4 -10
-3 0 -8 5 -11 10 -3 6 -1 10 4 10 6 0 11 -4 11 -10z m330 -10 c0 -5 -4 -10 -9
-10 -6 0 -13 5 -16 10 -3 6 1 10 9 10 9 0 16 -4 16 -10z m3437 -75 c59 -35 54
-41 -7 -10 -46 23 -60 35 -43 35 3 0 26 -11 50 -25z m-3447 -31 c0 -2 -11 -4
-25 -4 -14 0 -25 4 -25 9 0 4 11 6 25 3 14 -2 25 -6 25 -8z m2660 11 c0 -2
-10 -9 -22 -15 -22 -11 -22 -10 -4 4 21 17 26 19 26 11z m-1580 -25 c0 -5 -5
-10 -11 -10 -5 0 -7 5 -4 10 3 6 8 10 11 10 2 0 4 -4 4 -10z m1525 -10 c-3 -5
-12 -10 -18 -10 -7 0 -6 4 3 10 19 12 23 12 15 0z m950 -18 c-3 -3 -11 0 -18
7 -9 10 -8 11 6 5 10 -3 15 -9 12 -12z m-2550 -12 c3 -5 -3 -10 -14 -10 -12 0
-21 5 -21 10 0 6 6 10 14 10 8 0 18 -4 21 -10z m4825 0 c0 -5 -2 -10 -4 -10
-3 0 -8 5 -11 10 -3 6 -1 10 4 10 6 0 11 -4 11 -10z m-2190 -31 c27 -17 50
-33 50 -36 0 -4 -50 24 -95 54 -39 26 -4 12 45 -18z m3330 17 c0 -3 -4 -8 -10
-11 -5 -3 -10 -1 -10 4 0 6 5 11 10 11 6 0 10 -2 10 -4z m-6720 -66 c0 -5 -2
-10 -4 -10 -3 0 -8 5 -11 10 -3 6 -1 10 4 10 6 0 11 -4 11 -10z m3490 -11 l25
-20 -32 16 c-18 8 -33 18 -33 20 0 10 16 4 40 -16z m-3531 -13 c10 -12 8 -13
-8 -9 -12 3 -21 9 -21 14 0 14 16 11 29 -5z m6761 -6 c-8 -5 -19 -10 -25 -10
-5 0 -3 5 5 10 8 5 20 10 25 10 6 0 3 -5 -5 -10z m-3140 -36 c0 -2 -13 2 -30
11 -16 9 -30 18 -30 21 0 2 14 -2 30 -11 17 -9 30 -18 30 -21z m1610 -4 c0 -5
-4 -10 -10 -10 -5 0 -10 5 -10 10 0 6 5 10 10 10 6 0 10 -4 10 -10z m1570 -4
c0 -3 -4 -8 -10 -11 -5 -3 -10 -1 -10 4 0 6 5 11 10 11 6 0 10 -2 10 -4z
m-7240 -16 c0 -5 -2 -10 -4 -10 -3 0 -8 5 -11 10 -3 6 -1 10 4 10 6 0 11 -4
11 -10z m6392 -26 c353 4 585 3 592 -3 6 -5 22 -11 36 -13 14 -1 -238 -2 -559
0 -356 2 -595 -1 -612 -7 -23 -8 -30 -6 -51 17 -12 15 -15 20 -5 13 15 -12
112 -13 599 -7z m-6212 -4 c0 -5 -4 -10 -10 -10 -5 0 -10 5 -10 10 0 6 5 10
10 10 6 0 10 -4 10 -10z m6920 0 c0 -5 -12 -10 -27 -9 l-28 1 25 8 c14 4 26 8
28 9 1 1 2 -3 2 -9z m-6850 -20 c0 -5 -4 -10 -9 -10 -6 0 -13 5 -16 10 -3 6 1
10 9 10 9 0 16 -4 16 -10z m-575 -10 c3 -6 -1 -7 -9 -4 -18 7 -21 14 -7 14 6
0 13 -4 16 -10z m615 6 c0 -11 -19 -15 -25 -6 -3 5 1 10 9 10 9 0 16 -2 16 -4z
m38 -18 c-2 -3 8 -19 22 -34 l25 -28 -24 15 c-14 9 -31 26 -40 38 -14 21 -13
23 3 20 9 -2 16 -7 14 -11z m6882 -8 c8 -5 11 -12 8 -15 -4 -4 -17 0 -30 9
-24 17 -5 23 22 6z m-6922 -20 c12 -20 12 -21 -13 -4 -28 18 -31 24 -12 24 7
0 18 -9 25 -20z m6547 10 c-28 -12 -55 -12 -55 0 0 6 17 10 38 9 30 0 33 -2
17 -9z m325 0 c0 -5 -4 -10 -9 -10 -5 0 -16 -3 -25 -6 -9 -3 -16 -1 -16 4 0 9
16 17 43 21 4 0 7 -3 7 -9z m-940 -15 c7 -8 8 -15 2 -15 -5 0 -15 7 -22 15 -7
8 -8 15 -2 15 5 0 15 -7 22 -15z m550 -14 c0 -6 -4 -13 -10 -16 -14 -8 -13
-52 2 -61 7 -4 8 -3 4 4 -4 7 -2 12 3 12 6 0 11 -7 11 -15 0 -12 -13 -15 -56
-15 -49 0 -54 2 -40 15 8 8 22 15 32 15 13 0 14 3 5 14 -9 11 -10 20 -1 35 11
21 50 30 50 12z m436 -13 c3 -5 -11 -7 -33 -4 -51 6 -51 6 -28 15 22 9 52 3
61 -11z m-854 -10 c-7 -7 -12 -8 -12 -2 0 14 12 26 19 19 2 -3 -1 -11 -7 -17z
m625 10 c18 -7 33 -19 33 -27 0 -12 -3 -11 -18 2 -10 10 -28 17 -40 17 -12 0
-22 5 -22 10 0 13 6 13 47 -2z m-107 -44 c0 -8 -4 -12 -10 -9 -5 3 -10 10 -10
16 0 5 5 9 10 9 6 0 10 -7 10 -16z m340 6 c0 -5 -19 -10 -42 -10 -32 0 -39 3
-28 10 20 13 70 13 70 0z m-43 -26 c-3 -3 -12 -4 -19 -1 -8 3 -5 6 6 6 11 1
17 -2 13 -5z m-7750 -90 c-3 -3 -12 -4 -19 -1 -8 3 -5 6 6 6 11 1 17 -2 13 -5z
m73 -29 c33 -19 21 -19 -21 0 -19 8 -27 14 -19 14 8 0 26 -6 40 -14z m74 -30
c16 -12 17 -15 4 -15 -8 0 -21 7 -28 15 -16 19 -1 19 24 0z m541 -255 c3 -5 2
-10 -4 -10 -5 0 -13 5 -16 10 -3 6 -2 10 4 10 5 0 13 -4 16 -10z m-635 -70 c0
-5 -2 -10 -4 -10 -3 0 -8 5 -11 10 -3 6 -1 10 4 10 6 0 11 -4 11 -10z m1390 0
c0 -5 -4 -10 -9 -10 -6 0 -13 5 -16 10 -3 6 1 10 9 10 9 0 16 -4 16 -10z
m6245 0 c-28 -12 -37 -12 -30 0 3 6 16 10 28 9 21 0 21 -1 2 -9z m-1790 -60
c3 -5 -1 -10 -9 -10 -9 0 -16 5 -16 10 0 6 4 10 9 10 6 0 13 -4 16 -10z
m-4545 -34 c0 -3 -4 -8 -10 -11 -5 -3 -10 -1 -10 4 0 6 5 11 10 11 6 0 10 -2
10 -4z m6320 -15 c0 -28 -17 -35 -29 -12 -15 27 -14 31 9 31 13 0 20 -7 20
-19z m-1992 -31 c45 -27 40 -34 -5 -8 -47 27 -49 28 -37 28 5 0 24 -9 42 -20z
m-4523 -289 c-3 -6 -49 -36 -103 -67 -53 -32 -133 -78 -177 -104 -189 -111
-295 -170 -307 -170 -7 0 89 58 212 129 124 70 259 149 300 174 85 51 83 50
75 38z m-930 -91 c3 -5 -1 -10 -9 -10 -9 0 -16 5 -16 10 0 6 4 10 9 10 6 0 13
-4 16 -10z m7175 -24 c0 -2 -7 -9 -15 -16 -12 -10 -15 -10 -15 4 0 9 7 16 15
16 8 0 15 -2 15 -4z m-2095 -16 c18 -8 17 -9 -7 -9 -15 -1 -30 4 -33 9 -7 12
12 12 40 0z m75 -36 c0 -8 -4 -12 -10 -9 -5 3 -10 10 -10 16 0 5 5 9 10 9 6 0
10 -7 10 -16z m-220 -4 c0 -5 -4 -10 -9 -10 -6 0 -13 5 -16 10 -3 6 1 10 9 10
9 0 16 -4 16 -10z m245 -20 c3 -5 1 -10 -4 -10 -6 0 -11 5 -11 10 0 6 2 10 4
10 3 0 8 -4 11 -10z m1925 0 c0 -5 -4 -10 -10 -10 -5 0 -10 5 -10 10 0 6 5 10
10 10 6 0 10 -4 10 -10z m-1825 -40 c4 -6 -6 -10 -22 -10 -15 0 -46 -2 -68 -5
-31 -3 -28 -1 15 9 71 18 68 18 75 6z m-322 -19 c-4 -4 -21 -13 -38 -20 l-30
-12 30 25 c16 13 34 22 38 19 5 -3 5 -8 0 -12z m-2293 -41 c0 -5 10 -11 23
-11 31 -2 -71 -17 -113 -17 -29 0 -26 2 15 9 27 4 51 13 53 19 5 13 22 13 22
0z m165 0 c3 -5 -1 -10 -9 -10 -8 0 -18 5 -21 10 -3 6 1 10 9 10 8 0 18 -4 21
-10z m-72 -7 c-7 -2 -19 -2 -25 0 -7 3 -2 5 12 5 14 0 19 -2 13 -5z m-456 -19
c5 -13 17 -14 72 -8 36 3 71 11 78 16 7 5 14 5 17 -1 4 -6 13 -8 20 -5 8 3 16
1 20 -4 3 -5 -59 -14 -137 -21 -78 -6 -211 -18 -296 -26 -150 -14 -177 -13
-165 6 3 5 10 6 16 3 13 -8 358 17 358 26 0 3 -5 11 -12 18 -9 9 -8 12 5 12
10 0 20 -7 24 -16z m4623 -23 c0 -5 -7 -11 -14 -14 -10 -4 -13 -1 -9 9 6 15
23 19 23 5z m-3660 -35 c0 -2 -7 -6 -15 -10 -8 -3 -15 -1 -15 4 0 6 7 10 15
10 8 0 15 -2 15 -4z m-385 -46 c3 -5 -1 -10 -9 -10 -9 0 -16 5 -16 10 0 6 4
10 9 10 6 0 13 -4 16 -10z m4162 -76 c-3 -3 -12 -4 -19 -1 -8 3 -5 6 6 6 11 1
17 -2 13 -5z m-223 -46 c-20 -40 -106 -169 -169 -255 -41 -57 -44 -63 -25 -63
12 0 30 5 41 10 10 6 19 7 19 2 0 -18 -26 -32 -61 -32 -32 0 -42 -6 -71 -42
-74 -96 -272 -309 -364 -393 -299 -273 -557 -451 -915 -629 -287 -143 -583
-246 -877 -305 -57 -12 -109 -24 -115 -28 -7 -4 -21 -6 -33 -5 -11 2 -67 -4
-125 -13 -114 -17 -574 -49 -601 -41 -24 6 -23 -11 2 -24 16 -9 18 -15 10 -30
-6 -11 -8 -30 -4 -44 4 -19 0 -27 -25 -42 -35 -21 -30 -38 9 -30 34 6 64 -19
39 -35 -18 -11 -205 -11 -330 1 -111 11 -250 37 -264 51 -8 8 -5 10 45 13 26
2 44 17 30 26 -7 4 -9 13 -6 19 5 8 14 4 26 -11 10 -13 21 -20 25 -16 4 4 0
14 -9 23 -22 22 -20 28 5 15 27 -15 69 -4 69 16 0 11 5 14 16 10 9 -3 21 -3
27 1 23 15 151 32 158 21 4 -6 24 -1 54 16 58 30 58 30 -125 46 -69 6 -179 20
-245 31 -131 22 -379 79 -372 85 2 2 51 -7 108 -20 322 -75 464 -90 854 -91
353 0 399 3 665 50 808 141 1566 562 2114 1175 160 180 305 372 410 543 23 38
30 34 10 -5z m-2144 -8 c0 -5 -2 -10 -4 -10 -3 0 -8 5 -11 10 -3 6 -1 10 4 10
6 0 11 -4 11 -10z m50 -30 c0 -5 -4 -10 -9 -10 -6 0 -13 5 -16 10 -3 6 1 10 9
10 9 0 16 -4 16 -10z m2101 -63 c-10 -9 -11 -8 -5 6 3 10 9 15 12 12 3 -3 0
-11 -7 -18z m-5561 -7 c-6 -11 -13 -20 -16 -20 -2 0 0 9 6 20 6 11 13 20 16
20 2 0 0 -9 -6 -20z m-30 -50 c-6 -11 -13 -20 -16 -20 -2 0 0 9 6 20 6 11 13
20 16 20 2 0 0 -9 -6 -20z m5655 -30 c3 -5 1 -10 -4 -10 -6 0 -11 5 -11 10 0
6 2 10 4 10 3 0 8 -4 11 -10z m71 -25 c-11 -8 -30 -15 -42 -15 -13 0 -26 -4
-29 -10 -3 -5 -13 -10 -22 -10 -13 0 -13 3 -3 15 7 8 22 15 34 15 11 0 28 5
36 10 8 5 22 10 30 10 11 -1 10 -4 -4 -15z m-126 -10 c-7 -8 -17 -15 -22 -15
-6 0 -5 7 2 15 7 8 17 15 22 15 6 0 5 -7 -2 -15z m-5647 -20 c-3 -9 -8 -14
-10 -11 -3 3 -2 9 2 15 9 16 15 13 8 -4z m5597 -9 c0 -11 -19 -15 -25 -6 -3 5
1 10 9 10 9 0 16 -2 16 -4z m60 0 c0 -3 -4 -8 -10 -11 -5 -3 -10 -1 -10 4 0 6
5 11 10 11 6 0 10 -2 10 -4z m-115 -56 c-3 -5 -10 -10 -16 -10 -5 0 -9 5 -9
10 0 6 7 10 16 10 8 0 12 -4 9 -10z m165 0 c0 -5 -7 -10 -15 -10 -8 0 -15 5
-15 10 0 6 7 10 15 10 8 0 15 -4 15 -10z m-4605 -70 c3 -5 1 -10 -4 -10 -6 0
-11 5 -11 10 0 6 2 10 4 10 3 0 8 -4 11 -10z m1165 -240 c0 -5 -7 -7 -15 -4
-8 4 -15 8 -15 10 0 2 7 4 15 4 8 0 15 -4 15 -10z m455 -10 c-3 -5 -13 -10
-21 -10 -8 0 -14 5 -14 10 0 6 9 10 21 10 11 0 17 -4 14 -10z m672 -57 c-9 -9
-19 -14 -23 -11 -10 10 6 28 24 28 15 0 15 -1 -1 -17z m788 -3 c13 -6 15 -9 5
-9 -8 0 -22 4 -30 9 -18 12 -2 12 25 0z m-1985 -30 c0 -5 -5 -10 -11 -10 -5 0
-7 5 -4 10 3 6 8 10 11 10 2 0 4 -4 4 -10z m1570 -20 c0 -5 -4 -10 -10 -10 -5
0 -10 5 -10 10 0 6 5 10 10 10 6 0 10 -4 10 -10z m-2295 -30 c3 -5 2 -10 -4
-10 -5 0 -13 5 -16 10 -3 6 -2 10 4 10 5 0 13 -4 16 -10z m1705 -40 c8 -5 12
-11 9 -14 -3 -3 -14 1 -25 9 -21 16 -8 20 16 5z m80 0 c0 -5 -4 -10 -10 -10
-5 0 -10 5 -10 10 0 6 5 10 10 10 6 0 10 -4 10 -10z m-770 -40 c0 -5 -2 -10
-4 -10 -3 0 -8 5 -11 10 -3 6 -1 10 4 10 6 0 11 -4 11 -10z m-590 -50 c0 -5
-5 -10 -11 -10 -5 0 -7 5 -4 10 3 6 8 10 11 10 2 0 4 -4 4 -10z m120 -190 c0
-5 -2 -10 -4 -10 -3 0 -8 5 -11 10 -3 6 -1 10 4 10 6 0 11 -4 11 -10z m-1699
-27 c13 -16 12 -17 -3 -4 -17 13 -22 21 -14 21 2 0 10 -8 17 -17z m104 -71
c-3 -3 -11 0 -18 7 -9 10 -8 11 6 5 10 -3 15 -9 12 -12z m65 -38 c0 -2 -9 0
-20 6 -11 6 -20 13 -20 16 0 2 9 0 20 -6 11 -6 20 -13 20 -16z m100 -60 c0 -2
-9 0 -20 6 -11 6 -20 13 -20 16 0 2 9 0 20 -6 11 -6 20 -13 20 -16z m90 -50
c0 -2 -13 2 -30 11 -16 9 -30 18 -30 21 0 2 14 -2 30 -11 17 -9 30 -18 30 -21z
m75 -42 c-3 -3 -11 0 -18 7 -9 10 -8 11 6 5 10 -3 15 -9 12 -12z m101 -50 c-5
-4 -66 26 -66 33 0 3 16 -3 35 -12 19 -9 33 -18 31 -21z m74 -27 c14 -8 21
-14 15 -14 -5 0 -21 6 -35 14 -14 8 -20 14 -15 14 6 0 21 -6 35 -14z m100 -41
c23 -9 39 -18 37 -20 -2 -3 -24 4 -48 15 -54 24 -45 27 11 5z m110 -46 c10 -6
7 -7 -10 -2 -14 3 -32 11 -40 16 -10 6 -7 7 10 2 14 -3 32 -11 40 -16z m80
-30 c10 -6 7 -7 -10 -2 -14 3 -32 11 -40 16 -10 6 -7 7 10 2 14 -3 32 -11 40
-16z m2655 -7 c-3 -6 -11 -11 -17 -11 -6 0 -6 6 2 15 14 17 26 13 15 -4z
m-2470 -51 c33 -11 44 -17 25 -13 -38 6 -111 31 -95 32 6 0 37 -8 70 -19z
m2595 -20 c0 -5 -10 -10 -22 -10 -19 0 -20 2 -8 10 19 13 30 13 30 0z m-540
-80 c0 -5 -4 -10 -10 -10 -5 0 -10 5 -10 10 0 6 5 10 10 10 6 0 10 -4 10 -10z
m141 -13 c-6 -8 -8 -18 -4 -23 4 -5 1 -3 -7 3 -11 10 -17 9 -32 -4 -10 -9 -21
-13 -25 -9 -10 10 37 45 61 46 14 0 16 -3 7 -13z m97 -59 c-2 -6 -10 -14 -16
-16 -7 -2 -10 2 -6 12 7 18 28 22 22 4z m-218 -13 c-7 -9 -15 -13 -19 -10 -3
3 1 10 9 15 21 14 24 12 10 -5z m-772 -7 c-7 -7 -22 -20 -33 -28 -15 -10 -14
-7 4 13 14 15 29 27 33 27 5 0 3 -6 -4 -12z m630 -6 c6 -18 -15 -14 -22 4 -4
10 -1 14 6 12 6 -2 14 -10 16 -16z m196 3 c-6 -16 -24 -21 -24 -7 0 11 11 22
21 22 5 0 6 -7 3 -15z m81 -14 c-3 -6 -11 -11 -17 -11 -6 0 -6 6 2 15 14 17
26 13 15 -4z m-1890 -1 c-21 -8 -53 -40 -40 -40 4 0 22 7 41 16 45 22 52 14
13 -15 -27 -20 -34 -22 -55 -10 -13 7 -24 16 -24 20 0 10 50 37 70 37 9 1 6
-3 -5 -8z m1435 -11 c0 -5 -9 -9 -20 -9 -19 0 -26 11 -14 23 8 8 34 -3 34 -14z
m333 -26 c-9 -7 -26 -13 -37 -13 -19 0 -17 3 9 24 21 17 32 21 37 13 4 -7 0
-18 -9 -24z m-753 7 c0 -5 -9 -10 -19 -10 -11 0 -21 -5 -23 -11 -2 -7 -11 -10
-18 -7 -11 3 -6 10 15 21 35 19 45 21 45 7z m-95 -19 c-3 -6 -11 -11 -17 -11
-6 0 -6 6 2 15 14 17 26 13 15 -4z m163 1 c2 -7 -3 -12 -12 -12 -9 0 -16 -5
-16 -10 0 -11 42 -4 73 12 12 6 17 5 17 -7 0 -8 -8 -15 -18 -15 -10 0 -23 -5
-29 -11 -7 -7 -23 -9 -38 -5 -21 5 -26 11 -22 27 5 19 4 20 -12 5 -10 -9 -25
-16 -34 -16 -9 0 -17 -6 -17 -14 0 -22 19 -30 26 -12 8 20 34 21 34 1 0 -10
10 -15 30 -15 27 0 29 -2 21 -19 -10 -18 -63 -25 -165 -22 -16 0 -36 -5 -44
-12 -10 -8 -16 -8 -19 -1 -2 6 -28 9 -66 7 -54 -3 -59 -2 -37 9 14 7 41 24 60
39 41 31 80 45 80 30 0 -6 -6 -11 -13 -11 -8 0 -22 -9 -32 -20 -17 -19 -17
-20 -1 -20 10 0 24 6 31 13 35 31 45 37 60 37 9 0 31 11 48 24 46 35 87 42 95
18z m-1176 -12 c15 0 28 -5 28 -11 0 -8 -15 -10 -46 -5 -26 3 -54 6 -63 6 -10
0 -7 5 9 14 14 7 29 9 35 4 5 -4 22 -8 37 -8z m1291 -10 c-16 -19 -64 -50 -78
-50 -3 0 -5 5 -5 10 0 6 7 10 15 10 8 0 29 14 47 30 35 34 49 34 21 0z"/>
<path d="M4460 1050 c-8 -5 -10 -10 -5 -10 6 0 17 5 25 10 8 5 11 10 5 10 -5
0 -17 -5 -25 -10z"/>
<path d="M4660 8570 c0 -5 5 -10 10 -10 6 0 10 5 10 10 0 6 -4 10 -10 10 -5 0
-10 -4 -10 -10z"/>
<path d="M6347 8569 c7 -7 15 -10 18 -7 3 3 -2 9 -12 12 -14 6 -15 5 -6 -5z"/>
<path d="M4724 8530 c-7 -35 -34 -41 -34 -8 0 15 -3 19 -10 12 -7 -7 -8 -19
-1 -37 12 -30 -7 -80 -26 -72 -7 2 -18 -5 -24 -17 -9 -17 -9 -23 0 -26 9 -3 9
-7 0 -18 -9 -11 -9 -18 -1 -26 7 -7 22 12 51 71 25 49 47 81 57 81 11 0 13 6
9 19 -3 11 -1 22 5 26 15 9 12 25 -5 25 -9 0 -18 -12 -21 -30z"/>
<path d="M3380 8527 c-14 -6 -44 -19 -67 -30 -24 -11 -40 -23 -37 -28 3 -5 9
-7 14 -4 4 3 10 0 12 -6 2 -6 21 3 42 20 43 34 69 42 43 13 -22 -24 -21 -32 3
-32 11 0 20 -4 20 -10 0 -5 -12 -10 -27 -10 l-27 0 22 -16 c27 -19 29 -38 2
-31 -23 6 -27 -8 -5 -17 8 -3 16 -18 16 -33 1 -17 3 -21 6 -10 2 9 10 17 16
17 13 0 87 -78 87 -91 0 -5 7 -6 15 -3 8 4 22 1 30 -6 8 -7 15 -9 15 -5 0 4
-12 18 -26 30 -18 16 -28 35 -30 61 -1 21 -8 49 -15 63 -6 14 -16 36 -22 48
-6 13 -12 21 -15 18 -3 -2 -12 0 -22 5 -12 6 -15 18 -12 39 5 33 0 36 -38 18z
m78 -166 c3 -8 -1 -12 -9 -9 -7 2 -15 10 -17 17 -3 8 1 12 9 9 7 -2 15 -10 17
-17z"/>
<path d="M6480 8516 c0 -2 7 -7 16 -10 8 -3 12 -2 9 4 -6 10 -25 14 -25 6z"/>
<path d="M3208 8453 c-20 -5 -23 -14 -8 -29 7 -7 -14 -27 -62 -62 -75 -53
-145 -110 -118 -96 8 4 42 26 75 49 115 79 134 88 150 75 12 -10 15 -9 15 10
0 19 2 20 15 10 20 -17 31 -5 14 16 -8 10 -22 14 -40 10 -22 -4 -27 -2 -22 9
3 8 4 14 2 14 -2 -1 -12 -3 -21 -6z"/>
<path d="M4741 8424 c0 -11 3 -14 6 -6 3 7 2 16 -1 19 -3 4 -6 -2 -5 -13z"/>
<path d="M3124 8415 c-10 -8 -14 -14 -9 -14 6 0 19 6 29 14 11 8 15 15 10 15
-6 0 -19 -7 -30 -15z"/>
<path d="M3075 8390 c-3 -5 -2 -10 4 -10 5 0 13 5 16 10 3 6 2 10 -4 10 -5 0
-13 -4 -16 -10z"/>
<path d="M4455 8390 c3 -5 10 -10 16 -10 5 0 9 5 9 10 0 6 -7 10 -16 10 -8 0
-12 -4 -9 -10z"/>
<path d="M4490 8365 c0 -17 2 -18 24 -9 23 9 20 24 -4 24 -11 0 -20 -7 -20
-15z"/>
<path d="M4600 8370 c0 -5 5 -10 10 -10 6 0 10 5 10 10 0 6 -4 10 -10 10 -5 0
-10 -4 -10 -10z"/>
<path d="M6765 8370 c3 -5 8 -10 11 -10 2 0 4 5 4 10 0 6 -5 10 -11 10 -5 0
-7 -4 -4 -10z"/>
<path d="M3215 8350 c-3 -5 -1 -10 4 -10 6 0 11 5 11 10 0 6 -2 10 -4 10 -3 0
-8 -4 -11 -10z"/>
<path d="M3950 8345 c7 -9 15 -13 17 -11 7 7 -7 26 -19 26 -6 0 -6 -6 2 -15z"/>
<path d="M6791 8357 c22 -17 100 -57 95 -48 -7 11 -79 51 -92 51 -4 0 -5 -1
-3 -3z"/>
<path d="M3280 8330 c0 -5 5 -10 11 -10 5 0 7 5 4 10 -3 6 -8 10 -11 10 -2 0
-4 -4 -4 -10z"/>
<path d="M3340 8330 c0 -5 5 -10 10 -10 6 0 10 5 10 10 0 6 -4 10 -10 10 -5 0
-10 -4 -10 -10z"/>
<path d="M4570 8330 c0 -5 4 -10 9 -10 6 0 13 5 16 10 3 6 -1 10 -9 10 -9 0
-16 -4 -16 -10z"/>
<path d="M4480 8311 c0 -5 5 -13 10 -16 6 -3 10 -2 10 4 0 5 -4 13 -10 16 -5
3 -10 2 -10 -4z"/>
<path d="M3310 8306 c0 -2 7 -9 15 -16 12 -10 15 -10 15 4 0 9 -7 16 -15 16
-8 0 -15 -2 -15 -4z"/>
<path d="M3410 8299 c0 -5 4 -9 10 -9 5 0 7 -7 4 -15 -4 -10 0 -15 10 -15 9 0
19 -7 22 -15 10 -25 32 -18 27 8 -5 23 -73 65 -73 46z"/>
<path d="M6905 8290 c3 -5 8 -10 11 -10 2 0 4 5 4 10 0 6 -5 10 -11 10 -5 0
-7 -4 -4 -10z"/>
<path d="M3115 8270 c3 -5 11 -10 16 -10 6 0 7 5 4 10 -3 6 -11 10 -16 10 -6
0 -7 -4 -4 -10z"/>
<path d="M3364 8267 c3 -11 9 -30 12 -43 3 -13 10 -24 15 -24 16 0 9 34 -12
60 -15 18 -19 20 -15 7z"/>
<path d="M2960 8229 c0 -5 5 -7 10 -4 6 3 10 8 10 11 0 2 -4 4 -10 4 -5 0 -10
-5 -10 -11z"/>
<path d="M4740 8115 c0 -8 7 -15 16 -15 14 0 14 3 4 15 -7 8 -14 15 -16 15 -2
0 -4 -7 -4 -15z"/>
<path d="M4830 8079 c0 -5 5 -7 10 -4 6 3 10 8 10 11 0 2 -4 4 -10 4 -5 0 -10
-5 -10 -11z"/>
<path d="M3490 7942 c0 -12 19 -26 26 -19 2 2 -2 10 -11 17 -9 8 -15 8 -15 2z"/>
<path d="M3128 7643 c6 -2 12 -13 12 -24 0 -10 5 -19 10 -19 16 0 11 37 -6 44
-9 3 -19 6 -22 5 -4 0 -1 -3 6 -6z"/>
<path d="M3025 7480 c3 -5 8 -10 11 -10 2 0 4 5 4 10 0 6 -5 10 -11 10 -5 0
-7 -4 -4 -10z"/>
<path d="M2275 7350 c-3 -5 -1 -10 4 -10 6 0 11 5 11 10 0 6 -2 10 -4 10 -3 0
-8 -4 -11 -10z"/>
<path d="M1760 7313 c-12 -16 -32 -39 -44 -53 -11 -14 -4 -9 17 10 34 31 64
70 54 70 -2 0 -14 -12 -27 -27z"/>
<path d="M1815 7230 c3 -5 10 -10 16 -10 5 0 9 5 9 10 0 6 -7 10 -16 10 -8 0
-12 -4 -9 -10z"/>
<path d="M1773 7146 c-13 -6 -23 -13 -23 -16 0 -10 42 -31 48 -25 4 3 0 10 -8
16 -13 8 -13 10 0 18 21 14 9 19 -17 7z"/>
<path d="M1836 7135 c4 -8 11 -15 16 -15 6 0 5 6 -2 15 -7 8 -14 15 -16 15 -2
0 -1 -7 2 -15z"/>
<path d="M1805 7090 c-3 -5 1 -10 9 -10 9 0 16 5 16 10 0 6 -4 10 -9 10 -6 0
-13 -4 -16 -10z"/>
<path d="M2445 7000 c-3 -5 -1 -10 4 -10 6 0 11 5 11 10 0 6 -2 10 -4 10 -3 0
-8 -4 -11 -10z"/>
<path d="M2480 6990 c20 -13 33 -13 25 0 -3 6 -14 10 -23 10 -15 0 -15 -2 -2
-10z"/>
<path d="M2520 6970 c0 -5 5 -10 10 -10 6 0 10 5 10 10 0 6 -4 10 -10 10 -5 0
-10 -4 -10 -10z"/>
<path d="M2360 6926 c0 -9 5 -16 10 -16 6 0 10 4 10 9 0 6 -4 13 -10 16 -5 3
-10 -1 -10 -9z"/>
<path d="M2320 6830 c0 -5 5 -10 10 -10 6 0 10 5 10 10 0 6 -4 10 -10 10 -5 0
-10 -4 -10 -10z"/>
<path d="M2370 6830 c0 -5 4 -10 9 -10 6 0 13 5 16 10 3 6 -1 10 -9 10 -9 0
-16 -4 -16 -10z"/>
<path d="M2205 6750 c27 -12 43 -12 25 0 -8 5 -22 9 -30 9 -10 0 -8 -3 5 -9z"/>
<path d="M2200 6673 c0 -5 11 -13 24 -19 23 -11 24 -10 13 7 -12 19 -37 26
-37 12z"/>
<path d="M2165 6650 c3 -5 11 -10 16 -10 6 0 7 5 4 10 -3 6 -11 10 -16 10 -6
0 -7 -4 -4 -10z"/>
<path d="M2200 6630 c0 -5 5 -10 10 -10 6 0 10 5 10 10 0 6 -4 10 -10 10 -5 0
-10 -4 -10 -10z"/>
<path d="M1880 6520 c0 -5 5 -10 11 -10 5 0 7 5 4 10 -3 6 -8 10 -11 10 -2 0
-4 -4 -4 -10z"/>
<path d="M1989 6503 c-13 -15 -12 -15 9 -4 23 12 28 21 13 21 -5 0 -15 -7 -22
-17z"/>
<path d="M2030 6456 c0 -2 7 -7 16 -10 8 -3 12 -2 9 4 -6 10 -25 14 -25 6z"/>
<path d="M1925 6427 c-4 -10 -5 -21 -1 -24 10 -10 18 4 13 24 -4 17 -4 17 -12
0z"/>
<path d="M1840 6391 c0 -6 4 -13 10 -16 6 -3 7 1 4 9 -7 18 -14 21 -14 7z"/>
<path d="M1922 6369 c2 -6 8 -10 13 -10 5 0 11 4 13 10 2 6 -4 11 -13 11 -9 0
-15 -5 -13 -11z"/>
<path d="M1744 6311 c21 -23 26 -26 26 -11 0 5 -10 15 -22 21 -23 12 -23 12
-4 -10z"/>
<path d="M1726 6261 c-4 -7 -5 -15 -2 -18 9 -9 19 4 14 18 -4 11 -6 11 -12 0z"/>
<path d="M1800 6230 c0 -5 5 -10 11 -10 5 0 7 5 4 10 -3 6 -8 10 -11 10 -2 0
-4 -4 -4 -10z"/>
<path d="M4515 5070 c-3 -5 -1 -10 4 -10 6 0 11 5 11 10 0 6 -2 10 -4 10 -3 0
-8 -4 -11 -10z"/>
<path d="M4385 5040 c-3 -5 -1 -10 4 -10 6 0 11 5 11 10 0 6 -2 10 -4 10 -3 0
-8 -4 -11 -10z"/>
<path d="M4350 5010 c-9 -6 -10 -10 -3 -10 6 0 15 5 18 10 8 12 4 12 -15 0z"/>
<path d="M4434 4975 c-10 -8 -14 -15 -8 -15 6 0 17 7 24 15 16 19 9 19 -16 0z"/>
<path d="M5010 4960 c33 -26 52 -25 21 0 -13 11 -28 20 -35 20 -6 0 0 -9 14
-20z"/>
<path d="M5060 4936 c0 -7 72 -47 77 -43 2 3 -12 14 -32 26 -36 21 -45 24 -45
17z"/>
<path d="M5330 4930 c-8 -5 -12 -11 -9 -14 3 -3 14 1 25 9 21 16 8 20 -16 5z"/>
<path d="M4359 4823 l-24 -28 28 24 c25 23 32 31 24 31 -2 0 -14 -12 -28 -27z"/>
<path d="M4054 4799 c-19 -21 -19 -21 9 -8 15 7 27 16 27 21 0 14 -16 9 -36
-13z"/>
<path d="M4135 4810 c-3 -5 1 -10 9 -10 9 0 16 5 16 10 0 6 -4 10 -9 10 -6 0
-13 -4 -16 -10z"/>
<path d="M4240 4790 c0 -5 10 -10 23 -10 18 0 19 2 7 10 -19 13 -30 13 -30 0z"/>
<path d="M4295 4780 c-3 -5 1 -10 9 -10 9 0 16 5 16 10 0 6 -4 10 -9 10 -6 0
-13 -4 -16 -10z"/>
<path d="M3770 4690 c-8 -5 -12 -12 -9 -15 4 -3 12 1 19 10 14 17 11 19 -10 5z"/>
<path d="M4231 4674 c-7 -8 -19 -13 -27 -10 -8 3 -35 -10 -59 -29 -25 -18 -87
-55 -140 -80 -52 -26 -95 -50 -95 -54 0 -4 -24 -21 -52 -36 -29 -16 -66 -37
-83 -48 l-30 -19 27 6 c16 4 76 35 135 70 60 34 161 93 226 130 107 62 142 87
120 86 -4 -1 -14 -8 -22 -16z"/>
<path d="M3940 4665 c-19 -22 -10 -23 30 -3 33 17 34 18 9 18 -15 0 -32 -7
-39 -15z"/>
<path d="M2717 4646 c-4 -10 0 -12 14 -9 27 7 34 23 11 23 -11 0 -22 -6 -25
-14z"/>
<path d="M5915 4646 c-11 -7 -29 -16 -40 -19 l-20 -5 20 -1 c11 0 31 8 45 19
29 22 25 27 -5 6z"/>
<path d="M2872 4524 c-18 -35 -32 -68 -32 -72 1 -4 17 24 36 62 19 37 34 70
32 72 -2 2 -18 -26 -36 -62z"/>
<path d="M3500 4540 c0 -5 5 -10 10 -10 6 0 10 5 10 10 0 6 -4 10 -10 10 -5 0
-10 -4 -10 -10z"/>
<path d="M6294 4535 c-10 -8 -14 -15 -8 -15 6 0 17 7 24 15 16 19 9 19 -16 0z"/>
<path d="M3855 4520 c-13 -6 -15 -9 -5 -9 8 0 22 4 30 9 18 12 2 12 -25 0z"/>
<path d="M3795 4500 c-8 -13 5 -13 25 0 13 8 13 10 -2 10 -9 0 -20 -4 -23 -10z"/>
<path d="M6210 4490 c-9 -6 -10 -10 -3 -10 6 0 15 5 18 10 8 12 4 12 -15 0z"/>
<path d="M6060 4480 l-45 -7 45 -1 c25 0 65 3 90 7 l45 8 -45 0 c-25 0 -65 -3
-90 -7z"/>
<path d="M3405 4450 c-3 -5 -2 -10 4 -10 5 0 13 5 16 10 3 6 2 10 -4 10 -5 0
-13 -4 -16 -10z"/>
<path d="M5915 4440 c4 -6 21 -17 38 -26 18 -9 95 -54 172 -99 77 -45 164 -96
192 -111 29 -16 104 -59 167 -96 64 -38 118 -68 121 -68 4 0 50 -26 103 -59
108 -65 317 -187 617 -359 110 -63 216 -124 235 -135 19 -11 76 -43 125 -70
50 -27 127 -72 173 -99 46 -28 85 -48 88 -45 3 2 -48 35 -113 72 -65 37 -134
78 -153 90 -20 13 -59 34 -87 49 -28 14 -53 29 -55 33 -1 5 -30 22 -63 40 -39
21 -59 38 -57 48 2 10 -5 15 -20 15 -31 0 -128 50 -128 67 0 7 -8 13 -17 13
-10 0 -40 14 -68 29 -27 16 -83 46 -122 66 -40 20 -75 41 -79 46 -3 6 -29 21
-57 34 -29 13 -86 44 -127 69 -41 25 -94 55 -118 67 -47 22 -49 37 -11 56 14
8 18 13 9 13 -9 0 -25 -7 -37 -15 -19 -13 -25 -13 -52 3 -17 9 -31 20 -31 25
0 4 -7 7 -16 7 -19 0 -104 49 -104 60 0 4 -12 11 -27 15 -25 6 -100 50 -113
66 -3 4 -30 17 -60 29 -68 29 -82 39 -76 56 3 8 0 11 -9 8 -7 -3 -49 14 -92
38 -97 54 -156 80 -148 68z"/>
<path d="M3414 4395 c-18 -14 -18 -14 4 -8 12 3 22 9 22 14 0 12 -3 11 -26 -6z"/>
<path d="M3476 4371 c-4 -5 3 -7 14 -4 23 6 26 13 6 13 -8 0 -17 -4 -20 -9z"/>
<path d="M3555 4370 c-3 -5 1 -10 9 -10 8 0 18 5 21 10 3 6 -1 10 -9 10 -8 0
-18 -4 -21 -10z"/>
<path d="M3336 4345 c-11 -8 -15 -15 -10 -15 6 0 19 7 30 15 10 8 15 14 9 14
-5 0 -19 -6 -29 -14z"/>
<path d="M3649 4342 c-13 -10 -51 -31 -84 -48 -33 -16 -62 -31 -65 -34 -11
-13 -82 -50 -94 -50 -7 0 -26 -10 -42 -22 -30 -24 -137 -90 -217 -133 -27 -15
-46 -29 -43 -32 3 -3 45 17 93 44 48 27 95 53 103 56 8 4 29 16 45 26 59 37
221 131 278 161 31 17 57 35 57 40 0 14 -4 13 -31 -8z"/>
<path d="M3199 4208 c-16 -18 -29 -37 -29 -42 0 -6 3 -6 8 0 4 5 20 24 36 42
17 17 26 32 22 32 -4 0 -20 -15 -37 -32z"/>
<path d="M2678 4206 c-22 -16 -23 -26 -4 -26 7 0 16 9 19 20 3 11 4 20 4 20
-1 0 -10 -7 -19 -14z"/>
<path d="M6455 4180 c-3 -5 -2 -10 4 -10 5 0 13 5 16 10 3 6 2 10 -4 10 -5 0
-13 -4 -16 -10z"/>
<path d="M2615 4170 c-3 -5 0 -10 9 -10 8 0 16 -6 19 -12 2 -7 8 -10 12 -6 8
8 -12 38 -26 38 -4 0 -11 -4 -14 -10z"/>
<path d="M2595 4140 c3 -6 -2 -9 -12 -8 -10 0 -28 0 -41 0 -20 -2 -21 -4 -9
-16 20 -20 51 -23 70 -7 21 17 21 27 1 35 -8 3 -12 2 -9 -4z"/>
<path d="M7773 4133 c15 -2 37 -2 50 0 12 2 0 4 -28 4 -27 0 -38 -2 -22 -4z"/>
<path d="M8223 4133 c9 -2 23 -2 30 0 6 3 -1 5 -18 5 -16 0 -22 -2 -12 -5z"/>
<path d="M8430 4130 c0 -6 13 -8 32 -5 46 8 48 15 5 15 -20 0 -37 -5 -37 -10z"/>
<path d="M7988 4123 c7 -3 16 -2 19 1 4 3 -2 6 -13 5 -11 0 -14 -3 -6 -6z"/>
<path d="M7513 4005 c37 -55 107 -159 155 -232 48 -73 92 -135 99 -137 7 -3
-2 18 -20 45 -69 109 -107 171 -107 175 0 2 13 4 28 4 16 0 39 9 52 20 25 22
60 27 60 9 0 -6 7 -8 16 -5 10 4 26 -1 37 -11 20 -18 20 -18 2 10 -19 30 -10
38 11 10 8 -10 101 -145 206 -300 106 -156 195 -283 198 -283 3 0 13 19 22 43
9 23 31 76 48 117 44 105 105 276 129 362 11 40 23 81 27 91 6 17 -10 17 -317
13 -178 -2 -305 -2 -282 1 37 3 44 8 49 31 4 15 10 29 13 32 3 3 15 22 26 44
19 38 20 38 71 34 40 -4 51 -1 47 9 -5 14 -1 13 -434 17 l-205 1 69 -100z
m179 -17 c16 -5 25 -14 22 -19 -3 -6 -10 -6 -17 -1 -7 5 -24 12 -39 16 -16 3
-28 11 -28 17 0 7 7 8 18 4 9 -4 29 -12 44 -17z m84 -55 c-7 -7 -26 7 -26 19
0 6 6 6 15 -2 9 -7 13 -15 11 -17z m-91 -33 c3 -5 1 -10 -4 -10 -6 0 -11 5
-11 10 0 6 2 10 4 10 3 0 8 -4 11 -10z"/>
<path d="M8720 4100 c-134 -23 -220 -51 -220 -72 0 -11 18 -10 22 1 2 5 29 11
61 13 31 1 57 5 57 8 0 12 57 30 92 30 27 0 38 4 38 15 0 8 -1 14 -2 14 -2 -1
-23 -5 -48 -9z"/>
<path d="M2466 4092 c-4 -7 -9 -22 -11 -33 -3 -12 -11 -29 -20 -39 -19 -21
-21 -48 -2 -28 7 7 20 25 30 41 11 17 26 27 42 27 28 0 37 11 24 30 -6 10 -9
11 -9 3 0 -16 -37 -17 -42 -1 -3 9 -6 9 -12 0z"/>
<path d="M8100 4096 c0 -2 7 -6 15 -10 8 -3 15 -1 15 4 0 6 -7 10 -15 10 -8 0
-15 -2 -15 -4z"/>
<path d="M8183 4093 c15 -2 37 -2 50 0 12 2 0 4 -28 4 -27 0 -38 -2 -22 -4z"/>
<path d="M8458 4093 c12 -2 32 -2 45 0 12 2 2 4 -23 4 -25 0 -35 -2 -22 -4z"/>
<path d="M8728 4062 c-35 -4 -37 -22 -3 -22 25 0 33 -14 15 -25 -6 -4 -9 -12
-8 -18 2 -7 -2 -14 -7 -15 -25 -9 -45 -24 -45 -33 0 -6 5 -7 11 -3 7 4 21 7
33 8 16 1 22 10 28 46 11 59 8 66 -24 62z"/>
<path d="M8000 4021 c0 -5 7 -11 15 -15 8 -3 15 -1 15 3 0 5 -7 11 -15 15 -8
3 -15 1 -15 -3z"/>
<path d="M8612 4006 c2 -8 -5 -21 -16 -29 -16 -12 -16 -14 -2 -14 21 0 50 33
41 46 -9 16 -26 13 -23 -3z"/>
<path d="M3040 3985 c-11 -13 -10 -14 4 -9 9 3 16 10 16 15 0 13 -6 11 -20 -6z"/>
<path d="M8485 3981 c-3 -5 -1 -12 5 -16 5 -3 10 1 10 9 0 18 -6 21 -15 7z"/>
<path d="M2440 3970 c0 -5 5 -10 10 -10 6 0 10 5 10 10 0 6 -4 10 -10 10 -5 0
-10 -4 -10 -10z"/>
<path d="M8440 3960 c0 -5 5 -10 10 -10 6 0 10 5 10 10 0 6 -4 10 -10 10 -5 0
-10 -4 -10 -10z"/>
<path d="M8248 3953 c7 -3 16 -2 19 1 4 3 -2 6 -13 5 -11 0 -14 -3 -6 -6z"/>
<path d="M1211 3914 c13 -16 29 -19 29 -5 0 5 -9 11 -21 14 -16 4 -18 3 -8 -9z"/>
<path d="M8520 3914 c0 -9 -9 -18 -19 -21 -11 -3 -22 -11 -25 -19 -7 -17 6
-18 23 -1 11 10 14 10 18 0 6 -15 33 -17 33 -3 0 6 -7 10 -15 10 -8 0 -15 4
-15 9 0 5 7 11 15 15 8 3 15 10 15 16 0 5 -7 10 -15 10 -8 0 -15 -7 -15 -16z"/>
<path d="M2878 3894 c-21 -13 -38 -26 -38 -29 0 -6 69 35 76 46 7 13 4 11 -38
-17z"/>
<path d="M8585 3910 c3 -5 8 -10 11 -10 2 0 4 5 4 10 0 6 -5 10 -11 10 -5 0
-7 -4 -4 -10z"/>
<path d="M2785 3840 c-3 -6 1 -7 9 -4 18 7 21 14 7 14 -6 0 -13 -4 -16 -10z"/>
<path d="M1175 3800 c10 -11 20 -20 23 -20 3 0 -3 9 -13 20 -10 11 -20 20 -23
20 -3 0 3 -9 13 -20z"/>
<path d="M2715 3800 c-3 -6 1 -7 9 -4 18 7 21 14 7 14 -6 0 -13 -4 -16 -10z"/>
<path d="M8442 3747 c-16 -45 -16 -47 15 -47 25 0 26 -1 11 -17 -13 -13 -20
-14 -31 -4 -12 9 -16 8 -21 -5 -3 -8 -6 -17 -6 -18 0 -1 17 -2 39 -2 28 1 44
8 60 26 18 21 51 83 51 96 0 10 -80 3 -86 -7 -5 -8 -8 -8 -13 0 -4 6 -12 -4
-19 -22z m66 -15 c2 -7 -7 -12 -23 -12 -24 0 -26 2 -15 15 14 17 31 16 38 -3z"/>
<path d="M7347 3743 c-4 -3 -7 -11 -7 -17 0 -6 5 -5 12 2 6 6 9 14 7 17 -3 3
-9 2 -12 -2z"/>
<path d="M7085 3730 c3 -5 8 -10 11 -10 2 0 4 5 4 10 0 6 -5 10 -11 10 -5 0
-7 -4 -4 -10z"/>
<path d="M7295 3720 c-3 -5 -2 -10 4 -10 5 0 13 5 16 10 3 6 2 10 -4 10 -5 0
-13 -4 -16 -10z"/>
<path d="M1120 3690 c0 -5 7 -10 15 -10 8 0 15 5 15 10 0 6 -7 10 -15 10 -8 0
-15 -4 -15 -10z"/>
<path d="M8390 3592 c-7 -26 -22 -60 -32 -77 -10 -16 -18 -34 -18 -40 1 -5 8
4 17 20 8 17 25 38 37 47 12 10 15 18 8 18 -9 0 -9 8 4 31 9 18 12 35 7 40 -5
5 -15 -12 -23 -39z"/>
<path d="M7797 3593 c35 -56 168 -249 200 -292 36 -47 42 -67 18 -57 -46 18
-46 16 0 -16 28 -19 56 -38 63 -42 20 -12 14 8 -13 39 -24 28 -153 212 -237
338 -39 57 -64 82 -31 30z"/>
<path d="M5772 3548 c-19 -19 -14 -29 8 -16 20 13 27 28 12 28 -4 0 -13 -5
-20 -12z"/>
<path d="M5175 3539 c-4 -6 -5 -12 -2 -15 2 -3 7 2 10 11 7 17 1 20 -8 4z"/>
<path d="M5948 3543 c7 -3 16 -2 19 1 4 3 -2 6 -13 5 -11 0 -14 -3 -6 -6z"/>
<path d="M5225 3530 c-3 -5 -1 -10 4 -10 6 0 11 5 11 10 0 6 -2 10 -4 10 -3 0
-8 -4 -11 -10z"/>
<path d="M6700 3505 c-7 -9 -8 -15 -2 -15 5 0 12 7 16 15 3 8 4 15 2 15 -2 0
-9 -7 -16 -15z"/>
<path d="M5643 3496 c-10 -18 -99 -25 -95 -8 4 20 -21 12 -56 -17 l-33 -28 28
0 c15 0 34 7 41 16 7 9 15 12 18 6 4 -10 102 -11 112 0 9 9 10 45 1 45 -4 0
-12 -6 -16 -14z"/>
<path d="M6060 3501 c0 -6 -13 -18 -30 -28 -16 -9 -30 -23 -30 -30 0 -19 14
-16 42 11 14 12 33 26 43 29 9 4 13 11 10 17 -8 13 -35 13 -35 1z"/>
<path d="M6645 3490 c3 -5 8 -10 11 -10 2 0 4 5 4 10 0 6 -5 10 -11 10 -5 0
-7 -4 -4 -10z"/>
<path d="M6890 3485 c-7 -9 -8 -15 -2 -15 5 0 12 7 16 15 3 8 4 15 2 15 -2 0
-9 -7 -16 -15z"/>
<path d="M5910 3481 c0 -6 6 -11 14 -11 8 0 23 -3 33 -6 12 -5 15 -4 8 3 -15
16 -55 26 -55 14z"/>
<path d="M5060 3470 c0 -5 4 -10 9 -10 6 0 13 5 16 10 3 6 -1 10 -9 10 -9 0
-16 -4 -16 -10z"/>
<path d="M5790 3465 c-19 -23 -8 -26 20 -5 19 15 21 20 9 20 -9 0 -22 -7 -29
-15z"/>
<path d="M4530 3459 c0 -5 5 -7 10 -4 6 3 10 8 10 11 0 2 -4 4 -10 4 -5 0 -10
-5 -10 -11z"/>
<path d="M1265 3440 c3 -5 8 -10 11 -10 2 0 4 5 4 10 0 6 -5 10 -11 10 -5 0
-7 -4 -4 -10z"/>
<path d="M4062 3425 c-17 -19 -1 -19 24 0 14 11 15 14 4 14 -8 0 -21 -6 -28
-14z"/>
<path d="M4240 3430 c0 -5 7 -10 15 -10 8 0 15 5 15 10 0 6 -7 10 -15 10 -8 0
-15 -4 -15 -10z"/>
<path d="M4985 3422 c-30 -17 -54 -41 -55 -54 0 -20 41 -5 63 22 14 17 30 30
36 30 6 0 11 5 11 10 0 14 -20 11 -55 -8z"/>
<path d="M5280 3430 c0 -5 5 -10 10 -10 6 0 10 5 10 10 0 6 -4 10 -10 10 -5 0
-10 -4 -10 -10z"/>
<path d="M5864 3426 c-10 -8 -17 -17 -14 -19 3 -3 14 1 24 9 11 7 17 16 15 19
-3 3 -14 -2 -25 -9z"/>
<path d="M5673 3423 c-20 -8 -15 -23 7 -23 11 0 20 7 20 15 0 15 -6 17 -27 8z"/>
<path d="M5125 3404 c-12 -13 -19 -14 -30 -4 -12 10 -15 9 -15 -4 0 -19 -16
-22 -23 -3 -3 9 -10 9 -30 -2 -15 -8 -27 -17 -27 -21 0 -11 75 -7 82 4 5 8 11
7 20 -2 6 -6 32 -12 56 -12 35 0 43 -3 38 -15 -4 -12 2 -15 28 -15 37 0 47 13
45 58 l-1 27 -11 -27 c-11 -29 -31 -36 -43 -17 -4 7 -21 9 -40 6 -37 -6 -59
11 -25 20 12 3 21 9 21 14 0 15 -27 10 -45 -7z"/>
<path d="M5445 3410 c3 -5 11 -10 16 -10 6 0 7 5 4 10 -3 6 -11 10 -16 10 -6
0 -7 -4 -4 -10z"/>
<path d="M6020 3410 c0 -5 7 -10 15 -10 8 0 15 5 15 10 0 6 -7 10 -15 10 -8 0
-15 -4 -15 -10z"/>
<path d="M3790 3396 c0 -9 40 -13 46 -5 3 5 -6 9 -20 9 -14 0 -26 -2 -26 -4z"/>
<path d="M4535 3374 c-20 -30 -11 -46 10 -18 13 18 20 44 11 44 -2 0 -11 -12
-21 -26z"/>
<path d="M4885 3390 c3 -5 11 -10 16 -10 6 0 7 5 4 10 -3 6 -11 10 -16 10 -6
0 -7 -4 -4 -10z"/>
<path d="M5410 3390 c0 -5 5 -10 10 -10 6 0 10 5 10 10 0 6 -4 10 -10 10 -5 0
-10 -4 -10 -10z"/>
<path d="M5480 3392 c0 -11 58 -34 72 -29 7 2 -1 11 -19 20 -35 18 -53 21 -53
9z"/>
<path d="M3875 3370 c3 -5 8 -10 11 -10 2 0 4 5 4 10 0 6 -5 10 -11 10 -5 0
-7 -4 -4 -10z"/>
<path d="M5374 3365 c-17 -13 -17 -14 -2 -15 9 0 20 5 23 11 11 17 0 20 -21 4z"/>
<path d="M6430 3365 c0 -8 63 -45 75 -45 6 1 -2 8 -17 16 -16 8 -28 19 -28 24
0 6 -7 10 -15 10 -8 0 -15 -2 -15 -5z"/>
<path d="M4003 3347 c-4 -7 -20 -22 -35 -32 -35 -22 -28 -35 18 -33 19 1 40
-4 46 -10 7 -7 20 -12 29 -12 10 0 19 -6 22 -12 3 -10 9 -10 26 0 12 7 26 10
31 7 6 -3 24 7 42 24 23 22 30 33 22 41 -8 8 -16 4 -28 -14 -17 -27 -56 -36
-56 -13 -1 7 -5 6 -13 -5 -11 -14 -20 -15 -60 -6 -49 10 -54 16 -36 50 12 22
5 37 -8 15z"/>
<path d="M4212 3349 c2 -7 10 -15 17 -17 8 -3 12 1 9 9 -2 7 -10 15 -17 17 -8
3 -12 -1 -9 -9z"/>
<path d="M4698 3343 c-10 -2 -18 -11 -18 -19 0 -19 10 -18 26 4 9 11 13 13 14
4 0 -15 20 -6 20 9 0 9 -12 10 -42 2z"/>
<path d="M4897 3326 c-4 -10 0 -12 14 -9 22 6 26 23 5 23 -8 0 -16 -6 -19 -14z"/>
<path d="M4450 3320 c0 -17 33 -29 54 -18 15 8 16 12 5 19 -19 12 -59 11 -59
-1z"/>
<path d="M3835 3310 c-3 -5 -1 -10 4 -10 6 0 11 5 11 10 0 6 -2 10 -4 10 -3 0
-8 -4 -11 -10z"/>
<path d="M4555 3311 c-7 -13 12 -24 26 -15 6 3 15 0 20 -7 11 -18 21 -6 13 15
-7 17 -49 22 -59 7z"/>
<path d="M3720 3290 c0 -5 5 -10 10 -10 6 0 10 5 10 10 0 6 -4 10 -10 10 -5 0
-10 -4 -10 -10z"/>
<path d="M3792 3284 c-13 -6 -29 -17 -35 -23 -20 -20 19 -13 44 8 29 23 23 32
-9 15z"/>
<path d="M3477 3273 c-12 -12 -7 -22 8 -17 8 4 15 10 15 15 0 11 -14 12 -23 2z"/>
<path d="M3700 3262 c6 -13 14 -21 18 -18 3 4 -2 14 -12 24 -18 16 -18 16 -6
-6z"/>
<path d="M4310 3270 c0 -5 7 -10 15 -10 8 0 15 5 15 10 0 6 -7 10 -15 10 -8 0
-15 -4 -15 -10z"/>
<path d="M4260 3257 c-22 -9 -23 -11 -6 -14 10 -3 23 0 29 6 16 16 5 20 -23 8z"/>
<path d="M3935 3240 c10 -11 22 -17 28 -13 6 4 3 12 -8 20 -28 20 -41 16 -20
-7z"/>
<path d="M4172 3248 c-17 -17 -15 -33 2 -19 7 6 21 9 30 5 11 -4 16 -1 16 10
0 19 -31 21 -48 4z"/>
<path d="M3425 3233 c9 -8 23 -12 32 -9 9 4 13 9 9 13 -3 3 -17 8 -31 9 -23 2
-24 1 -10 -13z"/>
<path d="M3674 3219 c-19 -22 -19 -22 4 -8 12 8 22 17 22 21 0 12 -6 9 -26
-13z"/>
<path d="M2990 3110 c-12 -8 -11 -10 8 -10 12 0 22 5 22 10 0 13 -11 13 -30 0z"/>
<path d="M8054 3105 c-16 -12 -16 -14 -3 -15 9 0 22 7 29 15 16 19 0 19 -26 0z"/>
<path d="M7990 3080 c0 -5 4 -10 9 -10 6 0 13 5 16 10 3 6 -1 10 -9 10 -9 0
-16 -4 -16 -10z"/>
<path d="M2729 3069 c-9 -5 16 -9 63 -9 42 0 80 5 83 10 8 13 -126 12 -146 -1z"/>
<path d="M1980 3004 l-25 -15 29 3 c16 2 31 9 34 16 5 15 -6 14 -38 -4z"/>
<path d="M2090 3010 c-13 -9 -13 -10 0 -9 8 1 26 5 40 9 l25 8 -25 1 c-14 0
-32 -4 -40 -9z"/>
<path d="M5730 1030 c0 -5 7 -10 15 -10 8 0 15 5 15 10 0 6 -7 10 -15 10 -8 0
-15 -4 -15 -10z"/>
<path d="M5480 985 c-46 -25 -43 -33 5 -15 26 10 64 41 48 39 -4 0 -28 -11
-53 -24z"/>
<path d="M427 6875 c-24 -50 -20 -58 4 -12 11 22 19 41 17 43 -3 2 -12 -12
-21 -31z"/>
<path d="M391 6799 c-5 -13 -16 -42 -25 -63 -9 -22 -15 -41 -13 -43 2 -2 16
24 31 58 15 34 24 64 22 67 -3 3 -10 -6 -15 -19z"/>
<path d="M325 6635 c-9 -26 -15 -48 -12 -51 3 -3 12 16 21 42 21 62 14 68 -9
9z"/>
<path d="M285 6525 c-9 -26 -15 -48 -12 -51 3 -3 12 16 21 42 21 62 14 68 -9
9z"/>
<path d="M256 6445 c-3 -9 -6 -22 -5 -28 0 -7 5 -1 10 12 5 13 8 26 5 28 -2 2
-6 -3 -10 -12z"/>
<path d="M227 6353 c-23 -71 -20 -91 4 -23 11 30 18 59 16 64 -2 6 -11 -13
-20 -41z"/>
<path d="M187 6218 c-23 -78 -20 -97 3 -23 11 33 18 65 16 70 -1 6 -10 -15
-19 -47z"/>
<path d="M147 6068 c-9 -37 -17 -73 -16 -80 0 -7 9 19 20 57 10 39 17 74 16
80 -2 5 -11 -21 -20 -57z"/>
</g>
</svg>
